<svg xmlns="http://www.w3.org/2000/svg" xmlns:xlink="http://www.w3.org/1999/xlink" width="202.823" height="94.782" viewBox="0 0 202.823 94.782">
  <defs>
    <clipPath id="clip-path">
      <rect id="사각형_1" data-name="사각형 1" width="80.466" height="94.512" fill="none"/>
    </clipPath>
    <clipPath id="clip-path-2">
      <rect id="사각형_9" data-name="사각형 9" width="99.823" height="88.591" fill="none"/>
    </clipPath>
  </defs>
  <g id="로고" transform="translate(-237.534 -19.626)">
    <g id="그룹_2" data-name="그룹 2" transform="translate(237.534 19.626)">
      <g id="그룹_1" data-name="그룹 1" clip-path="url(#clip-path)">
        <path id="패스_1" data-name="패스 1" d="M29.494,100.13s2.274-.479,4.618-1.17a15.41,15.41,0,0,1-3.583-5.3A14.662,14.662,0,0,0,26.534,88.7a14.78,14.78,0,0,1-2.545-2.548s.206,8.676,5.162,11.293a45.245,45.245,0,0,0-7.921-2.068A14.35,14.35,0,0,1,15.585,92.7s-.618-.345-.547.072c0,0,3.305,8.743,14.456,7.362" transform="translate(-7.13 -40.862)" fill="#003163"/>
        <path id="패스_2" data-name="패스 2" d="M18.367,10.96A21.667,21.667,0,0,0,24.35,6.126a56.6,56.6,0,0,1,3.419-4.88c-10.082,3.328-9.4,9.714-9.4,9.714" transform="translate(-8.707 -0.591)" fill="#003163"/>
        <path id="패스_3" data-name="패스 3" d="M17.871,14.5s3.9-2.462,4.661-6.638c0,0,.2-.681-2.809,2.119a35.116,35.116,0,0,0-4.937,3.766s-.617-3.558,2.193-8.207c0,0,.479-.753.138-1.1,0,0-6.988,2.4-4.867,14.778A56.687,56.687,0,0,1,17.871,14.5" transform="translate(-5.62 -2.104)" fill="#003163"/>
        <path id="패스_4" data-name="패스 4" d="M10.935,27.652s3.494-3.828,4.319-8.275c0,0-1.644,0-7.128,6.773,0,0-.822-7.321-.068-11.427,0,0-7.263,5.195-1.165,19.359a23.778,23.778,0,0,1,4.043-6.431" transform="translate(-2.113 -6.983)" fill="#003163"/>
        <path id="패스_5" data-name="패스 5" d="M5.875,51.972c-.206-1.506,1.99-5.4,1.99-5.4A16.818,16.818,0,0,0,9.782,36.508c-.287,0-.524.735-.524.735-.533,1.137-2.628,4.189-2.628,4.189C5.739,42.664,4.955,47.2,4.955,47.2c.2-2.8-2.437-7.815-2.437-7.815A10.909,10.909,0,0,1,.255,34.118,20.434,20.434,0,0,0,1.631,45.744c1.983,2.872,4.244,6.228,4.244,6.228" transform="translate(0 -16.182)" fill="#003163"/>
        <path id="패스_6" data-name="패스 6" d="M10.573,71.029a54.442,54.442,0,0,1,.554-8.422s.5-5.064-1.385-8.532c0,0-.5-.722-.61.609,0,0-2.166,6.038-.556,11.91A15.093,15.093,0,0,0,4.69,60.668,13,13,0,0,1,1.083,55.3s-.5-.415-.5-.135c0,0-.628,5.7,4.391,11.157a35.179,35.179,0,0,0,5.6,4.71" transform="translate(-0.263 -25.555)" fill="#003163"/>
        <path id="패스_7" data-name="패스 7" d="M19.506,88.566s-.556-4.016-.971-7.546c0,0,0-2.706-4.371-8.943,0,0-.56-.343-.56.207a40.5,40.5,0,0,1,.418,6.445,14.505,14.505,0,0,0,1.737,5.407,51.573,51.573,0,0,0-5.484-4.507,13.278,13.278,0,0,1-5.068-5.055s-.833-.485-.623.692,2.358,9.7,8.4,11.021a50.918,50.918,0,0,1,6.523,2.279" transform="translate(-2.158 -34.136)" fill="#003163"/>
        <path id="패스_8" data-name="패스 8" d="M126.208,10.96s.677-6.386-9.4-9.714a57.17,57.17,0,0,1,3.419,4.88s1.592,2.181,5.981,4.834" transform="translate(-55.402 -0.591)" fill="#003163"/>
        <path id="패스_9" data-name="패스 9" d="M128.641,13.745a35.141,35.141,0,0,0-4.935-3.766c-3.015-2.8-2.807-2.119-2.807-2.119.756,4.176,4.659,6.638,4.659,6.638a57.186,57.186,0,0,1,5.619,4.717c2.123-12.379-4.865-14.778-4.865-14.778-.344.347.136,1.1.136,1.1,2.809,4.649,2.193,8.207,2.193,8.207" transform="translate(-57.341 -2.104)" fill="#003163"/>
        <path id="패스_10" data-name="패스 10" d="M128.064,19.377c.824,4.446,4.321,8.275,4.321,8.275a23.743,23.743,0,0,1,4.045,6.431c6.1-14.165-1.168-19.36-1.168-19.36.754,4.106-.07,11.427-.07,11.427-5.479-6.773-7.128-6.773-7.128-6.773" transform="translate(-60.741 -6.983)" fill="#003163"/>
        <path id="패스_11" data-name="패스 11" d="M139.165,47.2s-.786-4.532-1.676-5.763c0,0-2.1-3.053-2.633-4.189,0,0-.235-.735-.519-.735a16.835,16.835,0,0,0,1.92,10.061s2.191,3.9,1.987,5.4c0,0,2.261-3.356,4.246-6.228a20.409,20.409,0,0,0,1.371-11.626,10.9,10.9,0,0,1-2.258,5.263s-2.643,5.01-2.437,7.815" transform="translate(-63.652 -16.182)" fill="#003163"/>
        <path id="패스_12" data-name="패스 12" d="M142.387,55.3a12.957,12.957,0,0,1-3.6,5.371,15.035,15.035,0,0,0-3.887,5.926c1.608-5.872-.554-11.91-.554-11.91-.113-1.33-.617-.609-.617-.609-1.879,3.468-1.384,8.532-1.384,8.532a54.268,54.268,0,0,1,.555,8.422,35.139,35.139,0,0,0,5.6-4.71c5.016-5.453,4.4-11.157,4.4-11.157,0-.28-.506.135-.506.135" transform="translate(-62.742 -25.555)" fill="#003163"/>
        <path id="패스_13" data-name="패스 13" d="M134.365,74.573a13.3,13.3,0,0,1-5.066,5.055,50.714,50.714,0,0,0-5.484,4.507,14.575,14.575,0,0,0,1.734-5.407,40.879,40.879,0,0,1,.416-6.445c0-.55-.556-.207-.556-.207-4.37,6.237-4.37,8.943-4.37,8.943-.418,3.531-.971,7.546-.971,7.546a50.946,50.946,0,0,1,6.521-2.279c6.039-1.322,8.189-9.845,8.4-11.021s-.623-.692-.623-.692" transform="translate(-56.948 -34.136)" fill="#003163"/>
        <path id="패스_14" data-name="패스 14" d="M120.646,92.464a14.449,14.449,0,0,1-5.692,2.7,45.637,45.637,0,0,0-7.982,2.081c5-2.634,5.208-11.364,5.208-11.364a14.864,14.864,0,0,1-2.572,2.564,14.7,14.7,0,0,0-4.022,4.989,15.514,15.514,0,0,1-3.609,5.335c2.36.694,4.648,1.177,4.648,1.177,11.247,1.389,14.577-7.409,14.577-7.409.068-.419-.556-.072-.556-.072" transform="translate(-48.368 -40.733)" fill="#003163"/>
        <path id="패스_15" data-name="패스 15" d="M67.845,112.8s-9.769-2.629-14.276.7c-4.511-3.329-14.279-.7-14.279-.7a31.8,31.8,0,0,1-11.175.9c4.65,4.782,12.91,2.563,12.91,2.563,8.813-3.043,9.786-2.286,9.786-2.286a27.256,27.256,0,0,0-8.4,5.822c1.111,1.316,2.012,1.109,2.012,1.109,5.139-6.079,8.05-6.958,9.145-7.03,1.091.073,4,.951,9.138,7.03,0,0,.9.207,2.014-1.109a27.191,27.191,0,0,0-8.4-5.822s.971-.758,9.784,2.286c0,0,8.264,2.22,12.912-2.563a31.8,31.8,0,0,1-11.175-.9" transform="translate(-13.335 -53.034)" fill="#003163"/>
        <path id="패스_16" data-name="패스 16" d="M92.625,17.227l-.139-.084c-.215.274-.186.367-.186.367Z" transform="translate(-43.777 -8.131)" fill="#003163"/>
        <path id="패스_17" data-name="패스 17" d="M81.635,52.412l-.163-.011.047.1Z" transform="translate(-38.642 -24.854)" fill="#003163"/>
        <path id="패스_18" data-name="패스 18" d="M84.346,55.714l-.083-.117a.492.492,0,0,0-.06.362h.117Z" transform="translate(-39.932 -26.37)" fill="#003163"/>
        <path id="패스_19" data-name="패스 19" d="M93.066,17.777l.043-.044-.076-.026-.027.026-.032.1h.04Z" transform="translate(-44.098 -8.398)" fill="#003163"/>
        <path id="패스_20" data-name="패스 20" d="M83.963,56.2a.16.16,0,0,0,.144.2c.009-.13-.144-.2-.144-.2" transform="translate(-39.822 -26.657)" fill="#003163"/>
        <path id="패스_21" data-name="패스 21" d="M83.221,55.47l-.049.081V55.7l.092-.163-.043-.212Z" transform="translate(-39.449 -26.242)" fill="#003163"/>
        <path id="패스_22" data-name="패스 22" d="M81.288,51.756l.011.128.132.026h.085l.114-.1-.128-.059-.141-.022Z" transform="translate(-38.555 -24.537)" fill="#003163"/>
        <path id="패스_23" data-name="패스 23" d="M81.54,28.793l0-.084-.054-.066-.016.018-.016.048.016.115.029.022Z" transform="translate(-38.632 -13.585)" fill="#003163"/>
        <path id="패스_24" data-name="패스 24" d="M85.273,53h.238l.022-.082-.392-.024Z" transform="translate(-40.382 -25.087)" fill="#003163"/>
        <path id="패스_25" data-name="패스 25" d="M83.015,26.137c.04-.042.235.081.235.081l.2-.227-.177-.172-.069-.011-.1.121-.112-.009-.04.071-.1-.009-.087-.068-.06.006-.047.1-.108.146c-.078.185.049.242.049.242l.146.128a1.4,1.4,0,0,1,.255-.4s-.018.035.02,0" transform="translate(-39.139 -12.241)" fill="#003163"/>
        <path id="패스_26" data-name="패스 26" d="M82.016,56.816l-.045-.1-.13.19-.047.132-.1.172.143-.1.023-.093.071-.093Z" transform="translate(-38.749 -26.9)" fill="#003163"/>
        <path id="패스_27" data-name="패스 27" d="M93.369,53.307l-.146-.128-.1.07s.038.057.058.057Z" transform="translate(-44.167 -25.223)" fill="#003163"/>
        <path id="패스_28" data-name="패스 28" d="M85.37,52.389l-.229-.013.049.139.155-.022Z" transform="translate(-40.382 -24.842)" fill="#003163"/>
        <path id="패스_29" data-name="패스 29" d="M93.5,16.52l.069.013.076-.062.083-.044.074-.062.2-.031-.049-.084-.081-.04-.056.031-.036.062-.087.008-.079-.062-.054.03.009.131-.144,0-.015.1-.2.181.006.089a1.224,1.224,0,0,0,.287-.27" transform="translate(-44.207 -7.689)" fill="#003163"/>
        <path id="패스_30" data-name="패스 30" d="M45.142,45.176l-.123-.194-.058-.139c-.069-.081-.406-.408-.406-.408-.233.413-.091.468-.091.468-.092.057-.11.274-.11.274l.063.126.009.205.056.051.036.166.083.09.105.059.11-.042.372-.3,0-.205Z" transform="translate(-21.037 -21.075)" fill="#003163"/>
        <path id="패스_31" data-name="패스 31" d="M86.794,57.221l-.025.1.215.013.193-.2s.009-.194-.1-.217Z" transform="translate(-41.155 -26.995)" fill="#003163"/>
        <path id="패스_32" data-name="패스 32" d="M97.048,14.672l-.04-.073-.087.048-.105.013-.043.128H96.9Z" transform="translate(-45.899 -6.924)" fill="#003163"/>
        <path id="패스_33" data-name="패스 33" d="M85.743,7.205l-.056.1.157-.038.049-.117-.063-.088Z" transform="translate(-40.641 -3.35)" fill="#003163"/>
        <path id="패스_34" data-name="패스 34" d="M62.029,44.127l.04.02.02-.057-.083-.075Z" transform="translate(-29.41 -20.876)" fill="#003163"/>
        <path id="패스_35" data-name="패스 35" d="M96.948,53.889l.215.265.027.269.1-.07.069-.079-.052-.168-.356-.3h-.067l-.385-.195.339.279Z" transform="translate(-45.768 -25.425)" fill="#003163"/>
        <path id="패스_36" data-name="패스 36" d="M86.259,7.277l-.1.115.208.141.065-.088.049-.168-.13-.062Z" transform="translate(-40.864 -3.423)" fill="#003163"/>
        <path id="패스_37" data-name="패스 37" d="M98.9,12.461l-.132-.126v.126l.042.064Z" transform="translate(-46.847 -5.85)" fill="#003163"/>
        <path id="패스_38" data-name="패스 38" d="M81.577,59.944l.123-.161-.374-.044Z" transform="translate(-38.573 -28.334)" fill="#003163"/>
        <path id="패스_39" data-name="패스 39" d="M86.884,54.563l.17.1.242.141.319.141.41.482a.948.948,0,0,0,.8.265l.146.09.218.073.217.05-.027-.166-.215-.1v-.261l-.146.1-.172-.07.029-.17-.318-.024-.17-.309-.217-.144-.121-.262.269-.1-.126-.19-.264-.119-.51-.168-.049-.283a9.166,9.166,0,0,0-1.757-.848,7.484,7.484,0,0,1-1.236-.366l-.35.234-.247.046-.047.13-.134.088-.07.183-.264-.038-.067-.212-.144-.022L83,52.655l-.094-.046L82.9,52.48v-.141l.049-.13s-.013-.115-.06-.115-.24-.013-.24-.013a.6.6,0,0,0-.475-.093l-.144.163-.157.013-.13.2a.354.354,0,0,1,.345.15c.016.2.345.187.345.187h.379s-.056.117-.092.13a.388.388,0,0,1-.141-.013l-.146.027c-.37,0-.329.075-.329.075s-.17.075-.016.029.3.141.3.141l.119.329h.047l.106-.1.1-.221.238.316.121-.084.2.212.215-.009.153.031c1.015.261.918.72.918.72.381.34.286.587.286.587l.379.022.361.318c.121.221.753.064.753.064l.023-.073.143-.044-.047-.172.242-.261Zm-1.282-.34a.191.191,0,0,0-.049.084.205.205,0,0,1,.049-.09Z" transform="translate(-38.769 -24.651)" fill="#003163"/>
        <path id="패스_40" data-name="패스 40" d="M88.078,63.489l-.251.042.206.124Z" transform="translate(-41.656 -30.113)" fill="#003163"/>
        <path id="패스_41" data-name="패스 41" d="M95.792,15.715v-.1l-.108.055-.114.048v.036l.063.057Z" transform="translate(-45.329 -7.404)" fill="#003163"/>
        <path id="패스_42" data-name="패스 42" d="M95.711,53.512l.081.084s.157-.009.1-.058-.083-.075-.083-.075Z" transform="translate(-45.396 -25.358)" fill="#003163"/>
        <path id="패스_43" data-name="패스 43" d="M94.518,55.257l.3.217.045-.071.105.026.02.08.085-.02.2-.1.056.084a.183.183,0,0,0,.253-.111,1.045,1.045,0,0,0,.394-.326l.058-.155.1-.035-.04-.217-.052.026-.141-.084-.067.057,0,.239-.312.3-.21-.071-.17.04c-.148.168-.558-.031-.558-.031Z" transform="translate(-44.83 -25.884)" fill="#003163"/>
        <path id="패스_44" data-name="패스 44" d="M57.617,37.681l0,0h0Z" transform="translate(-27.328 -17.87)" fill="#003163"/>
        <path id="패스_45" data-name="패스 45" d="M58.625,37.022h0l-.009,0Z" transform="translate(-27.803 -17.557)" fill="#003163"/>
        <path id="패스_46" data-name="패스 46" d="M62.869,43.888l-.06.031c-.023.022-.085.1-.085.1" transform="translate(-29.75 -20.816)" fill="#003163"/>
        <path id="패스_47" data-name="패스 47" d="M89.313,8.741c-.016.68.141.7.141.7.184.233.027.309.027.309-.092.168-.04.216-.04.216.181.113.078.181.078.181l-.013.508c-.179.282.054.333.054.333l-.014.256c-.157.152-.092.152-.092.152a.423.423,0,0,1,.014.318.349.349,0,0,0,.078.473l.092-.155c0-.224.1-.269.1-.269a.48.48,0,0,1,.218.309s-.115.229.038.035.067-.279.067-.279c-.466-.649-.3-.953-.3-.953l.128-.336.341-.022.269.329a6,6,0,0,1-.6-1.929l.067-.126-.08-.163.054-.119-.094-.23.067-.151-.054-.119-.179-.075-.025.053-.117-.026c-.027.093.1.221.1.221.119.291-.269.291-.269.291.128.241-.065.265-.065.265" transform="translate(-42.361 -3.765)" fill="#003163"/>
        <path id="패스_48" data-name="패스 48" d="M91.781,82.917c.206,1.6.876,1.318.876,1.318.748-.742.455-1.276.455-1.276a1.211,1.211,0,0,1-1.331-.042" transform="translate(-43.532 -39.328)" fill="#003163"/>
        <path id="패스_49" data-name="패스 49" d="M84.106,65.99c.038-.693-.874-1.515-.874-1.515v-.287c-.249-.287-.457-.124-.457-.124-.419-.985-.918-1.15-.918-1.15l-.249-.121-.206-.247-.085-.656L81.11,61.6c-.045-.613-.379-.775-.379-.775l-.206.079-.208-.613-.166-.331-.043-.332-.249-.119-.168.616-.126,1.354c-.166.57-.417.653-.417.653l-.329-.04-.251-.326-.874-.411-.336-.369a1.065,1.065,0,0,0,.085-.577h.208v-.247l.163-.119-.208-.21-.121.25-.128-.124-.7-.082L76.32,59.8l-.251-.208c-.417,0-.166.124-.166.124.459.084-.038.287-.038.287a.556.556,0,0,0-.71.455l-.291.327.247.411-.166.163c-.08-.74-.582-.163-.582-.163.166-.366-.123-.455-.123-.455-.706-.327-1.082.455-1.082.455l-.168.04V61.6l-.291-.037-.043.446-.247-.408c-.294.492-.251.576-.251.576a1.332,1.332,0,0,1-.874.9,2.308,2.308,0,0,0-.959.286l-.247-.079-.587.411c-.374-.084-.415.366-.415.366l-.083-.163-.171.371a1.069,1.069,0,0,0,.253,1.065l.04.247-.543-.247.626,1.4.208.206.21.9.083.7-.293.163.168.288.663.247a1.045,1.045,0,0,0,1-.411h.789l.376-.042c.329.247.457-.408.457-.408l.833-.331c.413.163,1.078-.285,1.078-.285.921-.126,1.252.285,1.252.285h.457l.251.163.623,1.029.8-.778-.045.367-.083.371-.251.163.379.039.123-.45a1.5,1.5,0,0,1,.124.534s-.209.243,0,.119.545.495.545.495c-.086.737.746.7.746.7,1.082.333.793-.082.793-.082l.419-.159v.241h.161l.376.289.083-.165.457-.364s-.666-.371.123-.046.833-.74.833-.74l.126-.446.376-.742a1.491,1.491,0,0,0,.582-1.108,1.827,1.827,0,0,0,.083-1.479" transform="translate(-32.525 -28.227)" fill="#003163"/>
        <path id="패스_50" data-name="패스 50" d="M91.193,82.272l.123-.208h-.166Z" transform="translate(-43.233 -38.923)" fill="#003163"/>
        <path id="패스_51" data-name="패스 51" d="M94.2,82.386l.085-.124-.208-.042Z" transform="translate(-44.622 -38.997)" fill="#003163"/>
        <path id="패스_52" data-name="패스 52" d="M59.769,50.853l.071-.1-.1-.082-.06-.139-.273-.016.014-.15-.168-.1-.032-.293c-.275.066-.361-.1-.361-.1l-.034-.19c-.063-.2.043-.09.043-.09.278-.06.014-.259.014-.259l-.141.022-.027-.1-.023-.132h-.262l-.083-.1-.121-.079h-.114l-.047-.141-.038-.07-.105-.093L57.9,48.7l-.063.015a6.645,6.645,0,0,0-.964-.847l-.022-.115-.074-.037-.013-.073-.032-.088-.17-.062h-.094l-.058-.071-.11.011-.056.081-.168-.022-.1-.093-.177-.1c-.155.024,0,.358,0,.358l.168.115.238.278h.155l.056.119a.6.6,0,0,1,.224.411c.264-.022.433.274.433.274a1.516,1.516,0,0,0,.227.561l.1.106.452.7a.607.607,0,0,0,.227.388v.108a1.1,1.1,0,0,1,.356.236l-.023.1a3.015,3.015,0,0,0,.442.3c.347.327.522.517.522.517l.217-.212.081.073a1.974,1.974,0,0,0,.1-.894" transform="translate(-26.435 -22.438)" fill="#003163"/>
        <path id="패스_53" data-name="패스 53" d="M101.158,57.462l.04.11.124.088.1-.068-.112-.108Z" transform="translate(-47.979 -27.254)" fill="#003163"/>
        <path id="패스_54" data-name="패스 54" d="M66.362,56.828h.116l.155.075h.11l-.084-.062-.036-.031-.012-.039.021-.044.1-.075-.1-.079-.155-.009-.1-.026h-.107l-.09-.009-.146-.049-.071-.057.085-.119-.11-.093-.119-.013-.14-.057-.142.044-.038-.069L65.36,56.1l-.025.1-.118.048-.121.022-.149-.057-.149.024-.058.025-.071-.025a2.393,2.393,0,0,0-.476-.271L64,55.976l-.1.031-.069.026-.07-.07c-.217-.177-.36-.035-.36-.035-.038.353.248.291.248.291-.047.141.121.212.121.212l.3-.022.3.163.214-.044.084-.062.035.062.085.009.163.026.135.047.067.068.206.035.24.1c.047-.11.224-.084.224-.084a.291.291,0,0,0,.4.022Z" transform="translate(-30.072 -26.501)" fill="#003163"/>
        <path id="패스_55" data-name="패스 55" d="M99.522,11.3l-.179.238.114.027.287-.265.087-.013-.115-.115Z" transform="translate(-47.118 -5.299)" fill="#003163"/>
        <path id="패스_56" data-name="패스 56" d="M100.911,56.645l-.405-.393.013.15a.6.6,0,0,0,.392.243" transform="translate(-47.67 -26.68)" fill="#003163"/>
        <path id="패스_57" data-name="패스 57" d="M100.63,57.177l-.038.051.024.073v.075l.1-.018a.255.255,0,0,0,0-.088,1.053,1.053,0,0,0-.085-.093" transform="translate(-47.711 -27.119)" fill="#003163"/>
        <path id="패스_58" data-name="패스 58" d="M60.69,55.342l.072.093.069.011-.047-.117Z" transform="translate(-28.785 -26.243)" fill="#003163"/>
        <path id="패스_59" data-name="패스 59" d="M85.966,61.826l.123-.088-.163-.121Z" transform="translate(-40.754 -29.224)" fill="#003163"/>
        <path id="패스_60" data-name="패스 60" d="M99.287,55.365l-.135-.07c-.045.066.056.168.056.168l-.011.119.1.168.226.327.2-.19-.426-.446Z" transform="translate(-47.023 -26.226)" fill="#003163"/>
        <path id="패스_61" data-name="패스 61" d="M98.6,13.052l-.157-.011v.135l.069-.07Z" transform="translate(-46.694 -6.185)" fill="#003163"/>
        <path id="패스_62" data-name="패스 62" d="M98.48,56.563l.244.239.083.017,0-.11-.347-.23Z" transform="translate(-46.702 -26.788)" fill="#003163"/>
        <path id="패스_63" data-name="패스 63" d="M85.845,78.753l.163.124.419-.124-.251-.124Z" transform="translate(-40.716 -37.294)" fill="#003163"/>
        <path id="패스_64" data-name="패스 64" d="M59.416,53.836l.063.048s.106.049.1-.022A.62.62,0,0,0,59.5,53.7c-.047,0-.085.137-.085.137" transform="translate(-28.181 -25.469)" fill="#003163"/>
        <path id="패스_65" data-name="패스 65" d="M64.986,48.149l-.072-.035-.027.057.054.031Z" transform="translate(-30.776 -22.82)" fill="#003163"/>
        <path id="패스_66" data-name="패스 66" d="M68.528,56.579l.168.081.106-.011.144-.035-.069-.057-.17-.026Z" transform="translate(-32.503 -26.812)" fill="#003163"/>
        <path id="패스_67" data-name="패스 67" d="M70.255,66.733l-.023.1.081.055.02-.146-.043-.04Z" transform="translate(-33.311 -31.637)" fill="#003163"/>
        <path id="패스_68" data-name="패스 68" d="M64.745,53.661l.071-.033.036.042.056-.1-.083-.081-.118-.04-.023.07-.069.062.034.106Z" transform="translate(-30.647 -25.35)" fill="#003163"/>
        <path id="패스_69" data-name="패스 69" d="M70.91,54.26l.014-.106-.056-.11-.08.148.027.121.072.079Z" transform="translate(-33.574 -25.633)" fill="#003163"/>
        <path id="패스_70" data-name="패스 70" d="M70.143,57.538h-.307l-.038.1.108.013.13.009.085.086.108-.1Z" transform="translate(-33.105 -27.29)" fill="#003163"/>
        <path id="패스_71" data-name="패스 71" d="M64.982,48.685l.045.077,0,.066.105-.075,0-.1-.1-.064Z" transform="translate(-30.821 -23.045)" fill="#003163"/>
        <path id="패스_72" data-name="패스 72" d="M57.275,50.39h-.119l.036.106.083.082.119.106.036-.095-.072-.044Z" transform="translate(-27.109 -23.9)" fill="#003163"/>
        <path id="패스_73" data-name="패스 73" d="M58.35,52.3l-.045-.152-.135-.011.014.119.058.079.012.1.083.035.088-.013-.063-.1Z" transform="translate(-27.59 -24.728)" fill="#003163"/>
        <path id="패스_74" data-name="패스 74" d="M88.064,17.8l.091.071-.087.154.056.128.233-.188.168.009-.123-.13-.177-.135.137-.121.092.121.226-.17.078.024.148.121.13.015.264.274L89.4,17.9l.139-.344.244-.137.1.106.244-.137.175-.106-.105-.1-.1-.377-.108.07-.139.17-.107-.135-.206-.035a4.464,4.464,0,0,1-.766-.653l-.091.137.02.384c-.184.468-.092.565-.092.565a3.75,3.75,0,0,0-.444-.075l0,.062.132.144-.264.157c-.186.15.041.212.041.212" transform="translate(-41.715 -7.693)" fill="#003163"/>
        <path id="패스_75" data-name="패스 75" d="M59.126,53.524H59.2l-.036-.119Z" transform="translate(-28.043 -25.33)" fill="#003163"/>
        <path id="패스_76" data-name="패스 76" d="M56.2,49.391l.121.119.045-.058L56.24,49.3Z" transform="translate(-26.657 -23.382)" fill="#003163"/>
        <path id="패스_77" data-name="패스 77" d="M62.613,51.63l-.141-.236-.013.1.049.132Z" transform="translate(-29.624 -24.376)" fill="#003163"/>
        <path id="패스_78" data-name="패스 78" d="M62.031,50.531l.069-.036a.249.249,0,0,1,.043-.028l-.014-.035-.04-.024-.029.011-.052,0-.049.015-.033,0-.012.024-.036.026.085.04Z" transform="translate(-29.349 -23.908)" fill="#003163"/>
        <path id="패스_79" data-name="패스 79" d="M107.868,62.728l.052.132.023-.057.159.017-.036-.1.045-.126-.089-.062-.148-.132-.074.1.02.126Z" transform="translate(-51.129 -29.597)" fill="#003163"/>
        <path id="패스_80" data-name="패스 80" d="M102.591,57.4l-.448-.313,0,.119.5.349Z" transform="translate(-48.444 -27.075)" fill="#003163"/>
        <path id="패스_81" data-name="패스 81" d="M104.057,59.117c-.083,0-.074.046-.074.046l.038.068.166.132.121-.013v-.07l-.072-.053Z" transform="translate(-49.319 -28.039)" fill="#003163"/>
        <path id="패스_82" data-name="패스 82" d="M102.9,58.5l-.144.048.139.1.148.04.157.07.009-.093-.155-.119Z" transform="translate(-48.739 -27.748)" fill="#003163"/>
        <path id="패스_83" data-name="패스 83" d="M103.93,58.077l-.278-.342-.023.188.242.3Z" transform="translate(-49.152 -27.384)" fill="#003163"/>
        <path id="패스_84" data-name="패스 84" d="M107.241,67.42l-.108-.11-.1-.093-.179-.088-.114-.155-.155-.2h-.105l-.229-.225h-.168c.04.322.515.649.515.649l.117.057.144.119.145-.017.139.137Z" transform="translate(-50.316 -31.565)" fill="#003163"/>
        <path id="패스_85" data-name="패스 85" d="M116.177,64.581l-.211-.172-.352.239.422.141Z" transform="translate(-54.836 -30.549)" fill="#003163"/>
        <path id="패스_86" data-name="패스 86" d="M114.479,79.172s-.247.271-.652-.016l-.088-.07s.13-.285-.249-.49c0,0,.117.247.014.362,0,0,.031-.071-.157-.115,0,0-.1.013-.058-.2a.154.154,0,0,0-.085-.188s.027-.393-.493-.495l-.172-.23s-.13.031.069.257c0,0,0,.243.408.569h.085l.043.117h-.069l.011.17.1.058.029.1.087.044-.016.3-.115.172.07.042-.014.135-.146.062-.17.089s-.087.1.054.212l.116.044.1.086s.3.042.215.29l-.056.168s-.117.115-.085.23h.116l.025.141.087-.014s.695-.5.623-1.04l.119-.1.215-.053s-.087-.146.058-.159h.087l.128-.457s-.029-.113-.242-.013" transform="translate(-53.357 -36.867)" fill="#003163"/>
        <path id="패스_87" data-name="패스 87" d="M110.719,83.152l-.291.146-.029-.245-.13-.144-.159.188-.018.23-.188.212-.1.084c-.13.415-.8.746-.8.746-1.216.768-1.044,1.179-1.044,1.179.329.132.275.062.275.062.088-.1.159-.044.159-.044.482.358.739.186.739.186.722-.6.578-1,.578-1a.855.855,0,0,1,.8-.287l-.144-.2.016-.155.229-.132.029-.141.247-.315v-.241l-.159-.013Z" transform="translate(-51.204 -39.324)" fill="#003163"/>
        <path id="패스_88" data-name="패스 88" d="M108.293,67.124s.017.066.042.07.11.053.1.018a.769.769,0,0,0-.1-.132Z" transform="translate(-51.363 -31.816)" fill="#003163"/>
        <path id="패스_89" data-name="패스 89" d="M103.136,60.015l.071.075.105.04.014-.058-.128-.132Z" transform="translate(-48.917 -28.429)" fill="#003163"/>
        <path id="패스_90" data-name="패스 90" d="M108.749,88.411l-.016-.013-.029.17c-.115.024-.106.157-.106.157l.163-.088.159-.044-.087-.084Z" transform="translate(-51.508 -41.927)" fill="#003163"/>
        <path id="패스_91" data-name="패스 91" d="M116.753,63.753l.069.243.422-.139v-.17Z" transform="translate(-55.376 -30.206)" fill="#003163"/>
        <path id="패스_92" data-name="패스 92" d="M109.8,66.022c.018.018.072.093.076.064a.876.876,0,0,0-.018-.166l-.063.022s-.012.057,0,.079" transform="translate(-52.073 -31.266)" fill="#003163"/>
        <path id="패스_93" data-name="패스 93" d="M108.342,63.4l.009.088.078.07.112-.057.054-.044-.134-.1-.081-.1-.054.066Z" transform="translate(-51.379 -30.003)" fill="#003163"/>
        <path id="패스_94" data-name="패스 94" d="M108.845,67.607c.029.009.11.053.1.022a.857.857,0,0,0-.1-.137l-.045.048s.02.062.045.066" transform="translate(-51.604 -32.011)" fill="#003163"/>
        <path id="패스_95" data-name="패스 95" d="M109.111,62.821a.737.737,0,0,0-.018-.168l-.063.017s-.014.062,0,.084.069.093.076.066" transform="translate(-51.711 -29.716)" fill="#003163"/>
        <path id="패스_96" data-name="패스 96" d="M71.115,57.683l.011-.1h-.168l-.056.081-.06.144h.213Z" transform="translate(-33.6 -27.31)" fill="#003163"/>
        <path id="패스_97" data-name="패스 97" d="M109.089,63.748s-.016.059,0,.077.072.093.076.064a1.1,1.1,0,0,0-.018-.161Z" transform="translate(-51.738 -30.226)" fill="#003163"/>
        <path id="패스_98" data-name="패스 98" d="M109.156,64.64c.02.02.067.093.076.062a1.018,1.018,0,0,0-.02-.159l-.063.018s-.013.062.007.079" transform="translate(-51.767 -30.613)" fill="#003163"/>
        <path id="패스_99" data-name="패스 99" d="M109.738,65.546a.725.725,0,0,0-.018-.163l-.063.018s-.011.064.007.079.069.1.074.066" transform="translate(-52.009 -31.011)" fill="#003163"/>
        <path id="패스_100" data-name="패스 100" d="M109.052,63.135s-.011.066,0,.084.074.095.078.066a1.066,1.066,0,0,0-.02-.166Z" transform="translate(-51.721 -29.937)" fill="#003163"/>
        <path id="패스_101" data-name="패스 101" d="M63.124,53.013l.083.132.072.1.143.117.045-.13-.105-.084-.1-.071.047-.1-.155-.132-.152-.022-.074.059.047.117Z" transform="translate(-29.848 -25.055)" fill="#003163"/>
        <path id="패스_102" data-name="패스 102" d="M75.33,55.327h.094l.025-.082.025-.046.069-.075-.19-.022Z" transform="translate(-35.729 -26.135)" fill="#003163"/>
        <path id="패스_103" data-name="패스 103" d="M76.964,43.4l-.1-.079-.043-.121a.9.9,0,0,0-.014.3l.043.011.094.048.02.075-.056.08-.012.168.025-.025L77,43.8l.09-.044v-.066l-.068-.09.014-.132Z" transform="translate(-36.426 -20.488)" fill="#003163"/>
        <path id="패스_104" data-name="패스 104" d="M76.269,43.645l-.056.155-.022.1-.054.066-.014.19.014.055.054-.086.054-.1.074-.091.032-.055.047-.093s.009-.066-.027-.077a.58.58,0,0,1-.1-.064" transform="translate(-36.105 -20.701)" fill="#003163"/>
        <path id="패스_105" data-name="패스 105" d="M76.557,44.241l-.065.053-.049.1.058.079h.079l.08.044.058-.033-.025-.055-.056-.057-.011-.048Z" transform="translate(-36.257 -20.984)" fill="#003163"/>
        <path id="패스_106" data-name="패스 106" d="M74.179,47.279h.247l-.121-.115c-.1,0-.126.115-.126.115" transform="translate(-35.183 -22.37)" fill="#003163"/>
        <path id="패스_107" data-name="패스 107" d="M74.3,41.925l-.1-.022a.338.338,0,0,0-.387-.088l.078.11.085.119.166.258.134-.265Z" transform="translate(-35.01 -19.82)" fill="#003163"/>
        <path id="패스_108" data-name="패스 108" d="M74.928,43.043l.119.1-.074.075.033.261.17-.057s.144-.132.179-.155a.337.337,0,0,0,.078-.1l-.042-.077-.17.02-.038-.075-.078-.115-.09-.022-.1.053Z" transform="translate(-35.531 -20.346)" fill="#003163"/>
        <path id="패스_109" data-name="패스 109" d="M73.883,47.048l.092-.055-.06-.055-.085.022-.034.088Z" transform="translate(-35.001 -22.263)" fill="#003163"/>
        <path id="패스_110" data-name="패스 110" d="M76.108,42.567l-.063-.055-.083-.1-.09.1s-.02.064-.031.11a.16.16,0,0,0,0,.079l.052.042H76l.166-.024-.025-.04Z" transform="translate(-35.969 -20.115)" fill="#003163"/>
        <path id="패스_111" data-name="패스 111" d="M75.762,55.469l.094-.062-.009-.079h-.085c-.038,0-.038.071-.038.071l-.036.046.014.128Z" transform="translate(-35.899 -26.242)" fill="#003163"/>
        <path id="패스_112" data-name="패스 112" d="M77.137,57.452l.04.115.15-.048-.022-.115h-.083Z" transform="translate(-36.586 -27.227)" fill="#003163"/>
        <path id="패스_113" data-name="패스 113" d="M76.737,57.606l.067.046s.087-.022.063-.055a.565.565,0,0,0-.085-.084Z" transform="translate(-36.396 -27.278)" fill="#003163"/>
        <path id="패스_114" data-name="패스 114" d="M75.63,43.661a.584.584,0,0,0-.137.372l-.114.017-.054.093.047.093.087.04.056.033.072.091.079-.031-.067-.157.042-.1.034-.161-.065-.077.087-.089Z" transform="translate(-35.727 -20.708)" fill="#003163"/>
        <path id="패스_115" data-name="패스 115" d="M75.226,46.639h-.181l.056.064h.092Z" transform="translate(-35.594 -22.121)" fill="#003163"/>
        <path id="패스_116" data-name="패스 116" d="M76.954,52.826l-.132.084.206.07.128-.013-.025-.082Z" transform="translate(-36.437 -25.055)" fill="#003163"/>
        <path id="패스_117" data-name="패스 117" d="M74.973,41.839l-.032.044v.088l.1-.055Z" transform="translate(-35.545 -19.844)" fill="#003163"/>
        <path id="패스_118" data-name="패스 118" d="M81.431,23.184v-.071l-.069-.03-.056.048.056.075Z" transform="translate(-38.563 -10.948)" fill="#003163"/>
        <path id="패스_119" data-name="패스 119" d="M80.524,26.6l-.009.079.054.04.023.075.018-.062h.06l.013.066-.013.07.032.1a.3.3,0,0,0,.078-.19V26.69l-.025-.077.047-.082.031.159.072.091a.261.261,0,0,1-.125.239l-.009.229c-.065.159.069.141.069.141l.094-.243.054.1-.009.163a.582.582,0,0,0,.148-.155l.087-.027.038-.161c.023-.192.06-.219.06-.219a1.03,1.03,0,0,0,.155-.2c.014-.084-.132-.186-.132-.186l-.009-.084-.065-.027-.047.013-.067-.013-.029-.009-.06-.026h-.1l-.067.026-.042.032-.023-.018-.069-.044-.13.015-.063.047-.038.053-.016.062.007.062Z" transform="translate(-38.185 -12.482)" fill="#003163"/>
        <path id="패스_120" data-name="패스 120" d="M81.208,28.953l-.063-.066-.007.066.029.048Z" transform="translate(-38.484 -13.701)" fill="#003163"/>
        <path id="패스_121" data-name="패스 121" d="M80.743,53.012l.152.033L80.98,53l-.009-.106-.146.058Z" transform="translate(-38.296 -25.087)" fill="#003163"/>
        <path id="패스_122" data-name="패스 122" d="M83.259,24.2l-.117.018.1.084Z" transform="translate(-39.434 -11.478)" fill="#003163"/>
        <path id="패스_123" data-name="패스 123" d="M73.068,51.55a.75.75,0,0,1-.168.544l.027.27.069.022.033-.058.088.024.069.175-.014.119-.009.186-.022.178-.036.166.141.034.069.035.144-.013-.011-.845-.021-.142.032-.046c.047-.222.215,0,.215,0l-.049.155.132.21.146.049.022.1-.107.152.168.039.106-.022.024-.146.227.022.047-.106-.07-.093-.1-.035-.08-.093.058-.07v-.085a.524.524,0,0,0-.359-.421l.023-.083a1.771,1.771,0,0,0,.565-.348l.211.007-.025-.1-.09-.048-.146.048-.036.071-.144-.049-.058-.033-.063.059h-.092l-.11.022-.105.084-.132.164-.238-.329V51.21l.014-.079-.085-.072c-.023-.183.215-.2.215-.2l.094.067.063.013v-.088l.247.009.038.056.07-.082h.19l.049.07.215-.022.013.07h.343l.309-.366.083-.035.023-.141-.163-.023-.025.12-.155.079-.036.11-.37-.015-.069.037-.107.008-.074-.066-.428-.014-.069-.106h-.278l-.132.1-.163.234c-.038.221.074.242.074.242l-.052.234c-.166.013-.166.2-.166.2" transform="translate(-34.576 -23.9)" fill="#003163"/>
        <path id="패스_124" data-name="패스 124" d="M81.42,23.063l.052.066.135-.009.078.018.124-.018.031.031.06-.013.1.053.013-.093-.036-.053,0-.084.08-.035.063.028.076.033.085.04.045-.066.031-.044.117-.009.126.009.04-.044.07-.044.145,0L83,22.9l.094.059s.016.1.016.121a1.188,1.188,0,0,0,.025.124l.108.119.067.044.087-.088.092-.093s.056-.053.06-.075.025-.1.025-.1h.114V22.9l-.105-.057.152-.181.056.168.144.037h.116l.213.011.2-.261v.226l.1.048.067-.062v-.177l.072-.013.085-.106.108-.066.094.017-.072.08-.013.075-.009.113.206-.119.112-.13.069-.084-.018-.485a.587.587,0,0,0,.116-.375l-.121-.071a1.685,1.685,0,0,1,.2-.276l.083.086.209-.583s.063-.2-.2-.532l-.027-.236s-.155-.106-.206-.1l-.018.1-.07.208-.022-.141-.058-.044s-.067-.031-.088.163l-.091.059-.049.236-.076.15.054.031.04-.075.058-.053.025.163-.029.088-.076.106.045.09-.063.1-.076.044-.056.093a1.08,1.08,0,0,1-.023.119.89.89,0,0,1-.141.152,2.411,2.411,0,0,0-.717.546l-.023-.186.063-.075-.009-.159-.09.066s-.161-.014-.19.1l.06.059-.054.106-.007.124-.209.168s.108.088-.049.23l-.121.115-.072-.04-.016-.053-.175.015a.227.227,0,0,0-.264.02l-.318.011-.108-.038-.047.038h-.179l-.045.115-.094.09-.139.084-.071.115-.148.048-.1.042Z" transform="translate(-38.617 -9.41)" fill="#003163"/>
        <path id="패스_125" data-name="패스 125" d="M65.736,49.249a.255.255,0,0,0,.175.318.408.408,0,0,1,.135.252l.014.19v.159l.083.053-.043.066.056.093.092.013a.367.367,0,0,0,.269-.013s.271-.053.26.093l-.027.124.054.013.067-.1h.206l.092-.022V50.41H67.3l.045.062.124.068.132.119.15-.09.038.186.058.093.211-.137.125-.088h.11l.052-.124.058-.128.04-.084.175-.148-.15-.2.121-.108.164-.093.15-.2v-.212l.108-.349.121-.079a.4.4,0,0,0,.352,0A1.188,1.188,0,0,0,69,48.489a.28.28,0,0,1,.172-.1l-.323-.437.056-.137.095.119.083-.038a.6.6,0,0,0-.219-.254h-.014a2.387,2.387,0,0,0,.428-.079l-.052-.15.152-.1.15-.1-.2-.1-.128-.152-.2.053c.049-.349-.224-.376-.224-.376l-.1.1-.054-.148-.224.4-.027.172h-.3l.152.326-.152-.322s-.027.137-.027.15a.755.755,0,0,1-.047.075l-.1.006c-.148-.017-.325.188-.325.188v0a.91.91,0,0,0-.3.393c-.784.1-.806.446-.806.446v.154l-.1.022-.15-.075-.105.075-.123-.048v-.1h-.128l-.027-.026-.072.146-.065.163v.119l-.043.106a.171.171,0,0,0,.08.163s.04.022.018.119m2.151-1.563.022-.221h0l-.027.225Z" transform="translate(-31.131 -22.101)" fill="#003163"/>
        <path id="패스_126" data-name="패스 126" d="M73.412,47.7l.065.057.074-.017.045-.053-.049-.022h-.078Z" transform="translate(-34.819 -22.605)" fill="#003163"/>
        <path id="패스_127" data-name="패스 127" d="M73.583,42.753l-.056-.066-.009.11.056.022.065-.022Z" transform="translate(-34.87 -20.246)" fill="#003163"/>
        <path id="패스_128" data-name="패스 128" d="M71.826,57.681l-.069-.084-.2.062-.069.058-.083.022.06.075.119.036.045-.058.124.009.166.013a.811.811,0,0,1,.081-.1c.06-.058.069,0,.069,0l.112-.009.166-.027-.013-.046-.095-.046-.134-.093h-.092l-.132.066.063.035-.04.084Z" transform="translate(-33.869 -27.27)" fill="#003163"/>
        <path id="패스_129" data-name="패스 129" d="M80.244,26.92l-.054-.066-.027.062.058.053Z" transform="translate(-38.021 -12.737)" fill="#003163"/>
        <path id="패스_130" data-name="패스 130" d="M79.541,53.789l.108.128.132.059.083-.059.155.059.144-.046.383.157.058-.053-.132-.236-.19-.022-.128-.059-.109.05-.13-.05-.168.05Z" transform="translate(-37.726 -25.478)" fill="#003163"/>
        <path id="패스_131" data-name="패스 131" d="M75.006,59.008l-.072.039-.009.093a.252.252,0,0,0,.115-.013c.085-.024.027-.058.027-.058Z" transform="translate(-35.537 -27.987)" fill="#003163"/>
        <path id="패스_132" data-name="패스 132" d="M74.807,57.47c-.26.152-.356.071-.356.071a.471.471,0,0,1-.319.035c-.423-.181-.528.055-.528.055.024.157.321.086.321.086.074.106.349-.022.349-.022.058.093.26.009.26.009.325-.045.274-.234.274-.234" transform="translate(-34.91 -27.258)" fill="#003163"/>
        <path id="패스_133" data-name="패스 133" d="M82.321,23.416l-.038-.03-.023.039.034.035Z" transform="translate(-39.016 -11.092)" fill="#003163"/>
        <path id="패스_134" data-name="패스 134" d="M76.441,44.911l-.092-.033-.058.044-.087-.044-.08-.018-.012.062v.1l-.08.044-.114.022-.023.046-.078.033-.058.075-.007-.053v-.137l-.125-.064-.092.046-.1.1-.163.077-.146.115-.036.132-.043.132.078.027.045-.093.117-.177.034.1.065.036.036-.053.067.03c.111,0,.228-.132.228-.132l.115.093.042.084.034.066-.089.03.034.272.067.121.159.106.115.009.033-.022.056.035.069.053.047-.137L76.472,46l.014-.132-.1-.009-.047-.115.069-.069.067-.121.067.022.07.123.047.292.032-.366h.1v-.1l-.02-.473-.089-.135-.117-.168-.157-.165a.383.383,0,0,0,.036.333" transform="translate(-35.594 -21.143)" fill="#003163"/>
        <path id="패스_135" data-name="패스 135" d="M77.664,44.3s.112.046.014-.166c0,0-.045.033-.014.166" transform="translate(-36.831 -20.932)" fill="#003163"/>
        <path id="패스_136" data-name="패스 136" d="M76.792,42.7l.076.022.083.093.056.053-.023.11.056.044.087-.009.141.1-.023-.08-.036-.155.013-.128.009-.075-.078-.11-.148-.088-.047.053-.168.035Z" transform="translate(-36.422 -20.147)" fill="#003163"/>
        <path id="패스_137" data-name="패스 137" d="M76.69,41.525l-.069-.115-.056.036-.012.11.067.044Z" transform="translate(-36.309 -19.641)" fill="#003163"/>
        <path id="패스_138" data-name="패스 138" d="M78.066,53.9l.134.21.148.051.112-.009.071-.124L78.5,53.9l-.132-.046h-.188Z" transform="translate(-37.027 -25.543)" fill="#003163"/>
        <path id="패스_139" data-name="패스 139" d="M75.84,54.564l-.045.1-.014.128.036.106.074-.031v-.124l-.029-.046.074-.046Z" transform="translate(-35.943 -25.88)" fill="#003163"/>
        <path id="패스_140" data-name="패스 140" d="M78.01,44.491l-.045-.124-.036.088.047.08Z" transform="translate(-36.962 -21.043)" fill="#003163"/>
        <path id="패스_141" data-name="패스 141" d="M73.4,39.235V39.4l.009.068.123.042v.15l-.076.141.1.014.1-.036.195.137.207-.115.179.115.181.144.025-.144L74.5,39.9l.148.119v.1l.192.081.078.06.009.07.105.022.058-.1L75,40.118l-.137-.066-.045-.126.094-.042-.014-.066-.228-.091-.17-.09-.078-.009-.215.1-.078-.057-.15-.4.083-.093-.023-.088a1,1,0,0,0,.327-.424.323.323,0,0,0-.146-.267l.052-.121-.031-.057.031-.226-.143.146s-.3-.221-.363-.208l-.215.234-.025.5-.249.248a.3.3,0,0,0,.058.177Z" transform="translate(-34.754 -17.991)" fill="#003163"/>
        <path id="패스_142" data-name="패스 142" d="M72.255,44.065l.2-.247.061-.075s.067-.115-.083-.292v.257l-.327.313v.132l-.159.022a1.322,1.322,0,0,0-.251.406l.49-.349Z" transform="translate(-34.007 -20.609)" fill="#003163"/>
        <path id="패스_143" data-name="패스 143" d="M65.993,37.567l.072-.071.054-.055.047-.029s.047-.009.047-.026a.418.418,0,0,0-.025-.086l.045-.042.054-.066.043-.057.06-.088s.054-.049.024-.07l-.08-.073-.087-.011-.119.018-.087.028-.047.024-.1-.079-.141.055-.071.081s.009.058-.023.071a.879.879,0,0,0-.117.064s-.058.05-.058.077.025.155.025.155v.075l.036.08.08.013.1.013.074.044.087,0Z" transform="translate(-31.06 -17.494)" fill="#003163"/>
        <path id="패스_144" data-name="패스 144" d="M79.049,50.551l.06-.1.047-.057.038-.1-.025-.1v-.119l-.168.1-.013.2-.083.079.083.106Z" transform="translate(-37.425 -23.752)" fill="#003163"/>
        <path id="패스_145" data-name="패스 145" d="M74.884,36.773l.06-.022-.027-.081-.065.059Z" transform="translate(-35.502 -17.392)" fill="#003163"/>
        <path id="패스_146" data-name="패스 146" d="M74.827,37.75l.013.066.065-.013.036-.088h-.054Z" transform="translate(-35.491 -17.888)" fill="#003163"/>
        <path id="패스_147" data-name="패스 147" d="M74.883,37.286l-.014.046.056.033.049-.039Z" transform="translate(-35.511 -17.685)" fill="#003163"/>
        <path id="패스_148" data-name="패스 148" d="M73.821,33.993l.04.249h.119l-.04-.249.217-.329.034-.234.121-.234v-.27l-.215.04-.1.07.022.084-.118.1-.081.175-.119.192-.018.208.018.181Z" transform="translate(-34.949 -15.617)" fill="#003163"/>
        <path id="패스_149" data-name="패스 149" d="M78.194,26.659l.027-.031.083.007.029-.038-.016-.044-.083-.017-.052,0-.047.029-.027.028s.009.062.011.064Z" transform="translate(-37.047 -12.586)" fill="#003163"/>
        <path id="패스_150" data-name="패스 150" d="M79.115,50.875l.023.115.1.353.267.234-.247-.609.106-.031.085.045s.105.057.121.009-.074-.15-.074-.15l-.047-.049.105-.084.016-.141H79.4l-.128.217Z" transform="translate(-37.524 -23.983)" fill="#003163"/>
        <path id="패스_151" data-name="패스 151" d="M76.872,58.057l.165-.188c.081.018.224-.119.224-.119l.1.022.177-.093.078.009.144-.079.118-.088-.118-.15-.067.084a.788.788,0,0,0-.16.09c-.022.035-.067,0-.067,0s-.152-.033-.162-.037-.091.059-.091.059l-.079.073-.085,0-.141.119-.188.049-.132.066h-.118l-.083.155-.014.163.381-.066Z" transform="translate(-36.222 -27.211)" fill="#003163"/>
        <path id="패스_152" data-name="패스 152" d="M77.985,53.271l-.076.132h.063l.083-.073Z" transform="translate(-36.952 -25.266)" fill="#003163"/>
        <path id="패스_153" data-name="패스 153" d="M78.144,57.2H78.3l.1-.031-.036-.093-.157-.049-.175.058.013.084Z" transform="translate(-37.009 -27.047)" fill="#003163"/>
        <path id="패스_154" data-name="패스 154" d="M75.053,55.42l.074.084.011-.071-.052-.079Z" transform="translate(-35.598 -26.254)" fill="#003163"/>
        <path id="패스_155" data-name="패스 155" d="M73.379,58.482a1.123,1.123,0,0,0,.186.172c.163.066.155-.166.155-.166-.188.027-.251-.179-.251-.179a.429.429,0,0,1-.319-.028c-.2.242.229.2.229.2" transform="translate(-34.67 -27.643)" fill="#003163"/>
        <path id="패스_156" data-name="패스 156" d="M76.019,59.092l-.1-.009-.023.068-.038.042-.034.053L76,59.163Z" transform="translate(-35.966 -28.023)" fill="#003163"/>
        <path id="패스_157" data-name="패스 157" d="M76.318,57.585l-.092-.022-.065.066.025.046Z" transform="translate(-36.123 -27.302)" fill="#003163"/>
        <path id="패스_158" data-name="패스 158" d="M79.541,54.346h.074l.08-.064-.119-.02Z" transform="translate(-37.726 -25.736)" fill="#003163"/>
        <path id="패스_159" data-name="패스 159" d="M79.929,27.075l-.038-.137-.061.115.061.057Z" transform="translate(-37.863 -12.776)" fill="#003163"/>
        <path id="패스_160" data-name="패스 160" d="M77.824,52.867,77.6,52.9l.023.1.217-.026.128-.022Z" transform="translate(-36.804 -25.075)" fill="#003163"/>
        <path id="패스_161" data-name="패스 161" d="M79.672,50l.056-.075-.011-.212-.107.11.009.177Z" transform="translate(-37.759 -23.581)" fill="#003163"/>
        <path id="패스_162" data-name="패스 162" d="M79.282,52.189l-.193-.119.014.106Z" transform="translate(-37.512 -24.696)" fill="#003163"/>
        <path id="패스_163" data-name="패스 163" d="M79.305,52.836l.034-.084L79.27,52.7l-.072-.075-.083.009.023.119.085.051Z" transform="translate(-37.524 -24.96)" fill="#003163"/>
        <path id="패스_164" data-name="패스 164" d="M52.163,0A27,27,0,1,0,79.227,27.006,27.064,27.064,0,0,0,52.163,0m0,53.478A26.534,26.534,0,0,1,25.631,27.006,26.263,26.263,0,0,1,27.71,16.731l.081.451.293.124v.068a.142.142,0,0,0,.119.121l.155.022a.289.289,0,0,0,.078-.009,2.06,2.06,0,0,1,.914-.062,2.2,2.2,0,0,0,.39-.073l.188,0h.134a.148.148,0,0,1,.029,0l.011.023.069.117s.135.1.181.126c0,.047,0,.152,0,.152a.135.135,0,0,0,.108.117.213.213,0,0,1,.027.011.707.707,0,0,1,.038.066.306.306,0,0,0,.3.026l.04-.022a.536.536,0,0,0,.717.278s-.063.323-.471.2l.264.322.132.157.168.214s.121.08.343-.07l.056-.075s.282.119.291-.5l.206.027s-.192.057-.036.494l.023.3s-.121.071.027.349a1.041,1.041,0,0,0,.1.578l.081.288s0,.382.159.525c0,0-.011.217.13.283l.3.477a.344.344,0,0,0,.1.357s-.047.2.233.49a.582.582,0,0,0,.092.3s.1.395.195.439a.221.221,0,0,0,.121.239.4.4,0,0,0,.2.26s.137.1.292-.093a.248.248,0,0,1,.159-.311s.242.059.289-.342c0,0,.071-.049.071-.265,0,0,.132-.057.179-.49,0,0,.173-.068.11-.472,0-.022,0-.044-.009-.062l.058-.64.06-.132.181-.059.119-.082.025-.062.206-.146s.217-.128.247-.212a.061.061,0,0,0,0-.04l.468-.307.413-.417.3-.221.325-.172.2-.25-.022-.179.506-.331-.023.19.235-.048.128-.022.029.042.047-.025.034-.053.025-.009.049-.018.067-.033.08-.037.029.037.092.027.036-.069.024-.095.025-.06h.054l.029.045.063.053.015-.07,0-.068-.042-.035-.038.024-.02-.035.027-.075.056.026c.148.128.152-.009.152-.009l.115.073.078.1.029.152.067.112.023.058.054.137.038.121a.5.5,0,0,0,.26.349l.13.022.146.135s-.076.086.117.24l.128.179a.807.807,0,0,1,.054.6s-.139.428.034.428a.46.46,0,0,0,.383.022s.19-.159.3-.274l.076-.124.1-.1.117.115.148.126s.163.086.163.567c0,0-.045.146.233.618,0,0,.146.075.076.78l0,.059a1.063,1.063,0,0,0-.018.472l-.022.091,0,.028-.036.172-.071.084-.016.108.007.108.072.053.089-.04.1.128.213.217a.337.337,0,0,0,.083.229.449.449,0,0,0,.116.084l.027.022a.215.215,0,0,0,.108.179l.036.068,0,0a.481.481,0,0,0,.067.4.684.684,0,0,0,.227.557l.1.11.021.126.188.13.047.079.119.066.168.095.141.051.083.077.036.039.038-.017.009-.068.023-.048.058.022.065.018.06-.039-.047-.093-.034-.075-.074-.035-.038-.088-.056-.044-.067,0-.043-.084.009-.057s.047-.049.047-.066a1.7,1.7,0,0,0-.052-.172l-.029-.04.089-.084.049-.132-.071-.21-.069-.1-.081-.121-.047-.047-.069-.048-.063-.1-.08-.062-.038-.035-.043.08-.009,0-.032-.013-.071-.055.063-.046-.08-.086L43.7,24.6l-.1-.088-.081-.008-.069-.02-.119-.02L43.3,24.4l-.029-.088-.058-.055-.04-.128-.009-.179-.06-.017-.023-.079-.018-.106-.029-.07-.04-.062h-.083l-.058.049-.018-.04-.052-.066L42.7,23.5l0-.119.025-.091.029-.084-.043-.053.022-.088.09-.086.04-.108.036-.161s.052-.126.065-.152a.53.53,0,0,1,.058-.112l-.04-.117.078-.108v-.157l.079-.119.15.022.083.057-.02.1.038.126.135.059h.215l.121.088.029.07.033.016.137.09.034.119.007.024.083.064.029.1.043.1.1-.086.067.095v.1l.081.009.067-.044.027.039.016.018.087.066.036.093h.105l.076.026-.018.078-.058.1s.029.132.045.175a.635.635,0,0,1,.013.132l.06.062.076-.088.056-.075.119-.089c.152.044.226-.128.226-.128a.149.149,0,0,0,.124-.137c.143-.057.087-.2.134-.2a.408.408,0,0,0,.135-.057h.144a.245.245,0,0,0,.181-.106c.018-.044.087-.07.087-.07l.139-.106.161-.119.016-.161.016-.13c.15-.28.032-.384.032-.384l.043-.115-.09-.19-.119-.252-.029-.221-.106-.132-.013-.117-.119-.028-.06-.075L46,20.82l-.09-.062-.013-.084-.058-.1-.018-.1h-.193l-.089-.042v-.28l-.105-.07-.15-.046-.027-.161.071-.21.045-.055v-.15a.349.349,0,0,0,.2-.318l.058-.057c.211-.036.211-.195.211-.195l.087-.035.029-.009.06-.088,0,.013.036.009a1.689,1.689,0,0,0,.439,0s.04.079.089.1l.067-.022.029-.049.058-.017.074.044,0,.054-.058.028a.256.256,0,0,0,.063.294l.045.081.161,0,.078-.037-.045-.077-.08-.046-.054-.055-.02-.1.038-.044L47,18.9l.067.011.043-.028.139-.031a4.857,4.857,0,0,0,.522-.175h.253l.065-.1.09.062.11-.089-.049-.066.018-.064.078-.04.083.1.029-.022.06-.081.11.009.172,0,.114-.037.141.048.515-.349.15-.148.105-.121.124-.048,0-.084.025-.1.139-.15.17-.035L50.3,17.3l.155-.084-.025-.141.025-.132.13-.159.273-.459.043-.1-.043-.053L50.8,16.1s.092-.013.11-.013l.2-.009.074-.057.032-.062-.009-.079.036-.062-.085-.079,0-.038.018,0,.036-.017.049-.027.025-.044-.052-.07-.027-.022a.428.428,0,0,1-.038-.088c0-.018-.085-.079-.085-.079L51,15.292l-.146-.07.014-.044.119-.069.1-.022.11-.113-.078-.1-.109-.077-.09-.075-.128-.079-.146-.062,0-.071.058-.039.106.039.1.055.117.064.09.066s.19.038.1-.168L51.1,14.5l-.06-.088-.067-.084-.058-.049s0-.066,0-.086-.065-.091-.065-.091l-.063-.055a.846.846,0,0,0,0-.22l-.076-.051s.025-.146-.043-.212a.051.051,0,0,0-.014-.011c-.087-.06-.013-.091-.123-.073s-.02-.009-.02-.009l-.1-.084-.045.1-.094,0,.067-.313.13-.139.152-.179-.018-.1.1-.076.22-.1L51,12.538l.139-.016.148-.048.211-.084-.114-.128-.173-.044-.157-.031s-.105-.053-.144-.071-.161-.07-.161-.07l-.1.07-.083.115-.132.1-.206-.059-.047-.263-.24-.128-.164-.086-.065-.081.052-.11.013-.1.1-.075s.372.057.433,0l-.021-.177.058-.066.126-.075.105-.026.137-.11a.556.556,0,0,0,.083-.075,1,1,0,0,0,.087-.137l.018-.014a.264.264,0,0,1,.1-.022.7.7,0,0,0,.161-.031l.1.048.07.088a.722.722,0,0,1-.052.1c-.009.013-.076.126-.076.126s-.071.1-.083.119-.092.132-.092.132l.038.073.065.066-.016.062-.049.066.092.031.081-.022.065-.064.014-.015.121-.1.144-.073.155-.073.119-.064s.172.013.19.013a1.03,1.03,0,0,0,.139-.053l.014-.027.036-.057.045.062v.013l.027.048.047.035.04.066.023.066.029-.035.08-.037.112.042.016.077-.06.068-.04.062.04.058-.1.141-.067.141L52.345,12l.092.044.08-.009L52.549,12l.032.031.1.017-.009-.039.047-.048.072.059.092.05.1,0,.1.15a.945.945,0,0,1,.148.3l-.032.011-.134-.015-.094-.018-.074.079.1.049.029.055.007.033.078.07.081.084.016.066-.092.117-.029.028,0,.044-.027.046-.023.038s-.045.048-.063.07S53,13.3,53,13.3l.094.047.006.044-.047.036-.029.057.056.013.11,0,.049-.042.067-.046.116-.023.056-.044.067-.029.08-.046.1.046.074-.022V13.2l.069-.07.1-.069.126.024.08-.115a.421.421,0,0,0,.072-.349L54.2,12.7l-.009-.081-.032-.119-.025-.119-.022-.115-.076-.124-.159-.252a.993.993,0,0,0-.459-.4l-.02-.062.054-.048.012-.073-.038-.048-.036-.071a.281.281,0,0,0,.083-.159l.089.051.157,0,.1-.06.085-.095.043-.062.087-.017.081-.055.087-.042.087-.048-.014-.1.021-.119-.021-.073-.036-.068.032-.088.045-.044.11-.07.092-.093L54.677,10l-.018-.075.011,0c.209.115.558-.4.558-.4.117.462.738.32.738.32l-.065-.1s-.181-.024.027-.011.659-.371.659-.371l.043-.141.115-.15.363-.411a1.409,1.409,0,0,0,.6-.87,2.084,2.084,0,0,1,.22-.15,1.246,1.246,0,0,1,.233-.3l.13-.126a.57.57,0,0,1,.1-.281V6.667a.512.512,0,0,0,.1-.309l-.036-.093a.966.966,0,0,1,.334-.8l-.063-.256c.038-.259-.078-.3-.078-.3l.065-.062.025-.093-.089-.071-.079-.066-.049-.079-.091-.026L58.35,4.4V4.3L58,4.279l-.208.013-.065.113-.13.064-.13.086-.209.1-.052-.075.117-.053.054-.155L57.236,4.3l-.157.181-.038-.115.013-.119V4.124L56.913,4.1l-.067.026-.2-.026-.271-.053.6-.521h.179l.3-.369.192-.241.224-.208.217-.077.325-.32c.04-.226.388-.344.388-.344a1.046,1.046,0,0,1,.585-.428,26.37,26.37,0,0,1,4.8,1.881,1.405,1.405,0,0,0,.148.643c-.013.892.168.969.168.969l.155.817c.735-.446.733-.907.717-1.02a.657.657,0,0,0,.383-.128l.168.022a.588.588,0,0,1-.025-.353A26.458,26.458,0,0,1,52.163,53.478" transform="translate(-11.904)" fill="#003163"/>
        <path id="패스_165" data-name="패스 165" d="M1.1,161.86V142.683H9.712a10.972,10.972,0,0,1,3.659.471,4,4,0,0,1,2.041,1.746,5.88,5.88,0,0,1,.775,3.106,5.964,5.964,0,0,1-.594,2.754,5.044,5.044,0,0,1-1.631,1.878,5.77,5.77,0,0,1-1.814.759,4.9,4.9,0,0,1,1.344.707,5.766,5.766,0,0,1,.826,1.008,7.7,7.7,0,0,1,.723,1.191l2.5,5.557H11.708L8.948,156a4.484,4.484,0,0,0-.935-1.478,1.982,1.982,0,0,0-1.266-.445H6.292v7.784Zm5.188-11.407H8.469a6.893,6.893,0,0,0,1.368-.261,1.357,1.357,0,0,0,.838-.6A1.95,1.95,0,0,0,11,148.478a1.9,1.9,0,0,0-.513-1.426,2.8,2.8,0,0,0-1.927-.5H6.292Z" transform="translate(-0.524 -67.675)" fill="#003163"/>
        <path id="패스_166" data-name="패스 166" d="M71.331,153.716l4.526,1.57a10.305,10.305,0,0,1-1.437,3.65,6.464,6.464,0,0,1-2.434,2.211,8.085,8.085,0,0,1-3.7.745,9.533,9.533,0,0,1-4.452-.909,7.536,7.536,0,0,1-2.981-3.2,12.106,12.106,0,0,1-1.254-5.856q0-4.759,2.206-7.314a7.8,7.8,0,0,1,6.242-2.556,7.672,7.672,0,0,1,4.965,1.465,8.72,8.72,0,0,1,2.685,4.5l-4.56,1.164a4.85,4.85,0,0,0-.5-1.282,3.135,3.135,0,0,0-1.06-1.047,2.736,2.736,0,0,0-1.4-.365,2.948,2.948,0,0,0-2.691,1.62,7.718,7.718,0,0,0-.707,3.776q0,3.187.844,4.37a2.744,2.744,0,0,0,2.371,1.183,2.69,2.69,0,0,0,2.24-.955,6.336,6.336,0,0,0,1.1-2.774" transform="translate(-28.268 -67.38)" fill="#003163"/>
        <path id="패스_167" data-name="패스 167" d="M129.286,158.694h-5.863l-.815,3.166h-5.273l6.282-19.176h5.633l6.281,19.176h-5.408Zm-1.071-4.147-1.845-6.893-1.826,6.893Z" transform="translate(-55.652 -67.675)" fill="#003163"/>
      </g>
    </g>
    <line id="선_1" data-name="선 1" y2="86.132" transform="translate(330.13 27.701)" fill="none" stroke="#6683a1" stroke-width="1"/>
    <g id="그룹_4" data-name="그룹 4" transform="translate(340.534 25.817)">
      <g id="그룹_3" data-name="그룹 3" clip-path="url(#clip-path-2)">
        <path id="패스_168" data-name="패스 168" d="M0,127.857H2.077q.841,0,1.335.049a2.728,2.728,0,0,1,.909.247,1.4,1.4,0,0,1,.643.637A2.632,2.632,0,0,1,5.193,130a3.611,3.611,0,0,1-.068.723,2.014,2.014,0,0,1-.217.587,1.438,1.438,0,0,1-1.174.655v.087a1.606,1.606,0,0,1,.773.16,1.072,1.072,0,0,1,.439.446,1.956,1.956,0,0,1,.2.643,6.387,6.387,0,0,1,.049.853,4.384,4.384,0,0,1-.179,1.409,1.391,1.391,0,0,1-.544.742,2.088,2.088,0,0,1-.9.3,13.736,13.736,0,0,1-1.49.062H0Zm2.052,3.573a2.376,2.376,0,0,1,.26-.012,2.133,2.133,0,0,0,.377-.025.467.467,0,0,0,.235-.123.675.675,0,0,0,.161-.34,2.991,2.991,0,0,0,.056-.649,1.926,1.926,0,0,0-.154-.922q-.155-.253-.724-.253a.5.5,0,0,0-.1.013H2.052Zm0,3.968h.111a.768.768,0,0,0,.1.012q.594,0,.736-.334a3.154,3.154,0,0,0,.142-1.125,4.155,4.155,0,0,0-.049-.73.678.678,0,0,0-.167-.371.52.52,0,0,0-.3-.136,4.687,4.687,0,0,0-.575-.024Z" transform="translate(0 -61.391)" fill="#003163"/>
        <path id="패스_169" data-name="패스 169" d="M11.464,136.66v-8.8h2.065a11.561,11.561,0,0,1,1.372.068,2.805,2.805,0,0,1,.939.272,1.337,1.337,0,0,1,.6.618,2.489,2.489,0,0,1,.2,1.094,2.229,2.229,0,0,1-.377,1.36,1.778,1.778,0,0,1-1.194.643v.024a1.766,1.766,0,0,1,1.181.389,1.691,1.691,0,0,1,.389,1.267v1.842a2.931,2.931,0,0,0,.074.649,1.759,1.759,0,0,0,.234.575H14.889a1.657,1.657,0,0,1-.229-.575,3.225,3.225,0,0,1-.068-.649v-1.867a.982.982,0,0,0-.222-.68.679.679,0,0,0-.519-.247h-.334v4.018Zm2.052-5.279a1.145,1.145,0,0,0,.871-.241,2.07,2.07,0,0,0,.006-1.78,1.144,1.144,0,0,0-.877-.241Z" transform="translate(-5.505 -61.391)" fill="#003163"/>
        <rect id="사각형_2" data-name="사각형 2" width="2.052" height="8.803" transform="translate(11.93 66.466)" fill="#003163"/>
        <path id="패스_170" data-name="패스 170" d="M28.206,127.857H31.05l1.311,6.4h.024v-6.4h1.607v8.8H31.359L29.839,129.3h-.025v7.356H28.206Z" transform="translate(-13.543 -61.391)" fill="#003163"/>
        <path id="패스_171" data-name="패스 171" d="M44.6,136.054a1.664,1.664,0,0,1-.841.495,3.121,3.121,0,0,1-.94.123,2.048,2.048,0,0,1-1.589-.562,3.005,3.005,0,0,1-.513-2.009v-4.006a3.262,3.262,0,0,1,.2-1.23,1.976,1.976,0,0,1,.562-.8,2.136,2.136,0,0,1,.822-.421,3.917,3.917,0,0,1,1.008-.124,2.887,2.887,0,0,1,1.941.569,2.333,2.333,0,0,1,.667,1.83l-.012.928H43.857v-1.224a.914.914,0,0,0-.124-.5.557.557,0,0,0-.841,0,.909.909,0,0,0-.124.5v4.945a.947.947,0,0,0,.117.5.563.563,0,0,0,.847,0,.914.914,0,0,0,.124-.5V133.4h-.779v-1.335H45.91V136.5h-1.2Z" transform="translate(-19.55 -61.231)" fill="#003163"/>
        <rect id="사각형_3" data-name="사각형 3" width="2.052" height="8.803" transform="translate(27.113 66.466)" fill="#003163"/>
        <path id="패스_172" data-name="패스 172" d="M57.412,127.857h2.844l1.311,6.4h.024v-6.4H63.2v8.8H60.565L59.044,129.3H59.02v7.356H57.412Z" transform="translate(-27.567 -61.391)" fill="#003163"/>
        <path id="패스_173" data-name="패스 173" d="M73.805,136.054a1.666,1.666,0,0,1-.841.495,3.119,3.119,0,0,1-.94.123,2.047,2.047,0,0,1-1.588-.562,3.005,3.005,0,0,1-.513-2.009v-4.006a3.263,3.263,0,0,1,.2-1.23,1.981,1.981,0,0,1,.562-.8,2.135,2.135,0,0,1,.823-.421,3.913,3.913,0,0,1,1.007-.124,2.886,2.886,0,0,1,1.941.569,2.331,2.331,0,0,1,.668,1.83l-.012.928H73.063v-1.224a.918.918,0,0,0-.124-.5.558.558,0,0,0-.841,0,.914.914,0,0,0-.124.5v4.945a.947.947,0,0,0,.117.5.564.564,0,0,0,.847,0,.918.918,0,0,0,.124-.5V133.4h-.779v-1.335h2.831V136.5h-1.2Z" transform="translate(-33.574 -61.231)" fill="#003163"/>
        <path id="패스_174" data-name="패스 174" d="M87.426,136.659v-8.8h2.51a6.547,6.547,0,0,1,1.131.086,2.413,2.413,0,0,1,.835.3,1.394,1.394,0,0,1,.531.581,2.064,2.064,0,0,1,.186.927v1.607a1.718,1.718,0,0,1-.2.841,1.745,1.745,0,0,1-.532.593,2.415,2.415,0,0,1-.761.352,3.354,3.354,0,0,1-.9.117h-.754v3.4ZM89.478,132H89.8q.508,0,.637-.291a3.266,3.266,0,0,0,.13-1.143,3.327,3.327,0,0,0-.13-1.15q-.129-.3-.637-.3h-.321Z" transform="translate(-41.978 -61.391)" fill="#003163"/>
        <path id="패스_175" data-name="패스 175" d="M98.89,136.66v-8.8h2.065a11.555,11.555,0,0,1,1.372.068,2.8,2.8,0,0,1,.939.272,1.338,1.338,0,0,1,.6.618,2.5,2.5,0,0,1,.2,1.094,2.229,2.229,0,0,1-.377,1.36,1.777,1.777,0,0,1-1.193.643v.024a1.764,1.764,0,0,1,1.181.389,1.689,1.689,0,0,1,.389,1.267v1.842a2.93,2.93,0,0,0,.074.649,1.748,1.748,0,0,0,.235.575h-2.065a1.656,1.656,0,0,1-.229-.575,3.189,3.189,0,0,1-.068-.649v-1.867a.979.979,0,0,0-.223-.68.679.679,0,0,0-.519-.247h-.334v4.018Zm2.052-5.279a1.145,1.145,0,0,0,.871-.241,2.07,2.07,0,0,0,.006-1.78,1.143,1.143,0,0,0-.877-.241Z" transform="translate(-47.483 -61.391)" fill="#003163"/>
        <path id="패스_176" data-name="패스 176" d="M115.641,134.1a3.274,3.274,0,0,1-.2,1.23,1.98,1.98,0,0,1-.563.8,2.127,2.127,0,0,1-.822.421,4.183,4.183,0,0,1-2.015,0,2.123,2.123,0,0,1-.822-.421,1.975,1.975,0,0,1-.563-.8,3.274,3.274,0,0,1-.2-1.23V130.1a3.276,3.276,0,0,1,.2-1.23,1.981,1.981,0,0,1,.563-.8,2.135,2.135,0,0,1,.822-.42,4.165,4.165,0,0,1,2.015,0,2.139,2.139,0,0,1,.822.42,1.986,1.986,0,0,1,.563.8,3.276,3.276,0,0,1,.2,1.23Zm-3.14.47a.906.906,0,0,0,.124.5.556.556,0,0,0,.841,0,.906.906,0,0,0,.124-.5v-4.945a.909.909,0,0,0-.124-.5.556.556,0,0,0-.841,0,.909.909,0,0,0-.124.5Z" transform="translate(-53.032 -61.231)" fill="#003163"/>
        <path id="패스_177" data-name="패스 177" d="M125.1,130.85v-1.237a.861.861,0,0,0-.124-.513.621.621,0,0,0-.847,0,.9.9,0,0,0-.117.513,1.094,1.094,0,0,0,.29.748,7.565,7.565,0,0,0,.933.834q.445.346.742.612a4.588,4.588,0,0,1,.569.618,3,3,0,0,1,.439.81,2.95,2.95,0,0,1,.167,1.014,2.348,2.348,0,0,1-.656,1.83,2.827,2.827,0,0,1-1.954.593,4.613,4.613,0,0,1-.976-.1,2.564,2.564,0,0,1-.822-.328,1.641,1.641,0,0,1-.574-.612,1.894,1.894,0,0,1-.21-.927v-1.632h2.052V134.6a.821.821,0,0,0,.124.526.663.663,0,0,0,.828-.006.77.77,0,0,0,.136-.519,1.548,1.548,0,0,0-.334-1.014,6.335,6.335,0,0,0-1.026-.94q-.42-.321-.7-.569a3.866,3.866,0,0,1-.531-.587,2.773,2.773,0,0,1-.4-.779,3.063,3.063,0,0,1-.148-.983,1.967,1.967,0,0,1,.691-1.675,3.153,3.153,0,0,1,1.942-.526,4.769,4.769,0,0,1,1,.1,2.416,2.416,0,0,1,.81.327,1.587,1.587,0,0,1,.55.606,1.942,1.942,0,0,1,.2.909v1.385Z" transform="translate(-58.56 -61.231)" fill="#003163"/>
        <path id="패스_178" data-name="패스 178" d="M133.47,136.659v-8.8h2.51a6.548,6.548,0,0,1,1.131.086,2.413,2.413,0,0,1,.835.3,1.394,1.394,0,0,1,.531.581,2.063,2.063,0,0,1,.186.927v1.607a1.718,1.718,0,0,1-.2.841,1.745,1.745,0,0,1-.532.593,2.415,2.415,0,0,1-.761.352,3.354,3.354,0,0,1-.9.117h-.754v3.4ZM135.522,132h.321q.508,0,.637-.291a3.266,3.266,0,0,0,.13-1.143,3.326,3.326,0,0,0-.13-1.15q-.129-.3-.637-.3h-.321Z" transform="translate(-64.086 -61.391)" fill="#003163"/>
        <path id="패스_179" data-name="패스 179" d="M144.934,136.66v-8.8h4.253v1.335h-2.2v1.929h2.126v1.335h-2.126v2.868h2.2v1.335Z" transform="translate(-69.591 -61.391)" fill="#003163"/>
        <path id="패스_180" data-name="패스 180" d="M154.209,136.66v-8.8h2.065a11.56,11.56,0,0,1,1.372.068,2.805,2.805,0,0,1,.939.272,1.337,1.337,0,0,1,.6.618,2.488,2.488,0,0,1,.2,1.094,2.229,2.229,0,0,1-.377,1.36,1.777,1.777,0,0,1-1.194.643v.024a1.766,1.766,0,0,1,1.181.389,1.691,1.691,0,0,1,.389,1.267v1.842a2.931,2.931,0,0,0,.074.649,1.759,1.759,0,0,0,.234.575h-2.064a1.657,1.657,0,0,1-.229-.575,3.226,3.226,0,0,1-.068-.649v-1.867a.982.982,0,0,0-.223-.68.68.68,0,0,0-.519-.247h-.334v4.018Zm2.052-5.279a1.147,1.147,0,0,0,.872-.241,2.072,2.072,0,0,0,.006-1.78,1.144,1.144,0,0,0-.878-.241Z" transform="translate(-74.044 -61.391)" fill="#003163"/>
        <rect id="사각형_4" data-name="사각형 4" width="2.052" height="8.803" transform="translate(86.136 66.466)" fill="#003163"/>
        <path id="패스_181" data-name="패스 181" d="M170.9,129.192v-1.335h4.921v1.335h-1.434v7.468h-2.052v-7.468Z" transform="translate(-82.061 -61.391)" fill="#003163"/>
        <path id="패스_182" data-name="패스 182" d="M183.113,133.42l-1.743-5.563h2l.754,3.5h.025l.754-3.5h2l-1.743,5.563v3.239h-2.052Z" transform="translate(-87.086 -61.391)" fill="#003163"/>
        <path id="패스_183" data-name="패스 183" d="M0,154.451v-1.338H4.932v1.338H3.494v7.485H1.437v-7.485Z" transform="translate(0 -73.518)" fill="#003163"/>
        <path id="패스_184" data-name="패스 184" d="M16.932,159.371a3.278,3.278,0,0,1-.2,1.233,1.983,1.983,0,0,1-.564.8,2.136,2.136,0,0,1-.823.422,4.185,4.185,0,0,1-2.02,0,2.134,2.134,0,0,1-.824-.422,1.988,1.988,0,0,1-.564-.8,3.279,3.279,0,0,1-.2-1.233v-4.015a3.28,3.28,0,0,1,.2-1.233,1.988,1.988,0,0,1,.564-.8,2.14,2.14,0,0,1,.824-.421,4.167,4.167,0,0,1,2.02,0,2.142,2.142,0,0,1,.823.421,1.983,1.983,0,0,1,.564.8,3.28,3.28,0,0,1,.2,1.233Zm-3.148.471a.911.911,0,0,0,.124.5.558.558,0,0,0,.843,0,.911.911,0,0,0,.124-.5v-4.957a.912.912,0,0,0-.124-.5.559.559,0,0,0-.843,0,.912.912,0,0,0-.124.5Z" transform="translate(-5.631 -73.358)" fill="#003163"/>
        <path id="패스_185" data-name="패스 185" d="M30.891,154.451v-1.338h4.932v1.338H34.386v7.485H32.329v-7.485Z" transform="translate(-14.833 -73.518)" fill="#003163"/>
        <path id="패스_186" data-name="패스 186" d="M42.619,161.936v-8.823h2.057v3.271h1.091v-3.271h2.057v8.823H45.767v-4.213H44.676v4.213Z" transform="translate(-20.464 -73.518)" fill="#003163"/>
        <path id="패스_187" data-name="패스 187" d="M55.014,161.936v-8.823h4.263v1.338H57.071v1.933H59.2v1.339H57.071V160.6h2.206v1.339Z" transform="translate(-26.415 -73.518)" fill="#003163"/>
        <path id="패스_188" data-name="패스 188" d="M76.238,153.112l1.14,8.823H75.334l-.236-2.169H73.984l-.335,2.169H71.914l1.5-8.823Zm-1.288,5.316-.359-3.928h-.025l-.359,3.928Z" transform="translate(-34.53 -73.518)" fill="#003163"/>
        <path id="패스_189" data-name="패스 189" d="M87.766,156.112v-1.239a.869.869,0,0,0-.124-.514.624.624,0,0,0-.849,0,.905.905,0,0,0-.117.514,1.1,1.1,0,0,0,.291.75,7.532,7.532,0,0,0,.936.836q.446.348.743.613a4.575,4.575,0,0,1,.57.62,2.988,2.988,0,0,1,.44.811,2.944,2.944,0,0,1,.167,1.016,2.353,2.353,0,0,1-.657,1.834,2.83,2.83,0,0,1-1.958.595,4.6,4.6,0,0,1-.979-.1,2.562,2.562,0,0,1-.824-.328,1.646,1.646,0,0,1-.576-.613,1.9,1.9,0,0,1-.211-.929v-1.635h2.057v1.524a.822.822,0,0,0,.124.527.535.535,0,0,0,.421.142.525.525,0,0,0,.409-.149.769.769,0,0,0,.137-.52,1.552,1.552,0,0,0-.334-1.016,6.373,6.373,0,0,0-1.029-.942q-.421-.322-.7-.57a3.907,3.907,0,0,1-.533-.588,2.8,2.8,0,0,1-.4-.781,3.058,3.058,0,0,1-.149-.985,1.972,1.972,0,0,1,.694-1.679,3.156,3.156,0,0,1,1.946-.527,4.754,4.754,0,0,1,1,.1,2.417,2.417,0,0,1,.811.328,1.6,1.6,0,0,1,.552.607,1.941,1.941,0,0,1,.2.911v1.388Z" transform="translate(-40.63 -73.358)" fill="#003163"/>
        <rect id="사각형_5" data-name="사각형 5" width="2.057" height="8.823" transform="translate(50.419 79.595)" fill="#003163"/>
        <path id="패스_190" data-name="패스 190" d="M107.369,153.112l1.14,8.823h-2.045l-.235-2.169h-1.115l-.335,2.169h-1.735l1.5-8.823Zm-1.289,5.316-.36-3.928H105.7l-.359,3.928Z" transform="translate(-49.477 -73.518)" fill="#003163"/>
        <rect id="사각형_6" data-name="사각형 6" width="2.751" height="1.462" transform="translate(60.122 83.746)" fill="#003163"/>
        <path id="패스_191" data-name="패스 191" d="M123.3,161.936v-8.823h2.516a6.628,6.628,0,0,1,1.134.086,2.418,2.418,0,0,1,.836.3,1.394,1.394,0,0,1,.533.582,2.066,2.066,0,0,1,.186.929v1.611a1.72,1.72,0,0,1-.2.843,1.751,1.751,0,0,1-.533.594,2.42,2.42,0,0,1-.762.353,3.367,3.367,0,0,1-.9.118h-.756v3.408Zm2.057-4.672h.322q.508,0,.638-.291a3.28,3.28,0,0,0,.13-1.146,3.339,3.339,0,0,0-.13-1.153q-.129-.3-.638-.3h-.322Z" transform="translate(-59.205 -73.518)" fill="#003163"/>
        <path id="패스_192" data-name="패스 192" d="M138.5,153.112l1.141,8.823h-2.045l-.236-2.169h-1.115l-.335,2.169h-1.734l1.5-8.823Zm-1.288,5.316-.36-3.928h-.025l-.359,3.928Z" transform="translate(-64.424 -73.518)" fill="#003163"/>
        <path id="패스_193" data-name="패스 193" d="M152.083,158.343v1.165q0,2.441-2.615,2.441a3.836,3.836,0,0,1-1-.124,2.147,2.147,0,0,1-.818-.421,1.988,1.988,0,0,1-.564-.8,3.279,3.279,0,0,1-.2-1.233v-4.015a3.276,3.276,0,0,1,.2-1.233,1.976,1.976,0,0,1,.564-.8,2.141,2.141,0,0,1,.818-.422,3.834,3.834,0,0,1,1-.124,4.888,4.888,0,0,1,1.072.106,2.112,2.112,0,0,1,.811.365,1.7,1.7,0,0,1,.539.725,3.054,3.054,0,0,1,.192,1.159v.967h-2.057v-1.215a.917.917,0,0,0-.124-.5.475.475,0,0,0-.434-.192.448.448,0,0,0-.409.192.912.912,0,0,0-.124.5v4.957a.914.914,0,0,0,.124.5.449.449,0,0,0,.409.192.477.477,0,0,0,.434-.192.919.919,0,0,0,.124-.5l.012-1.5Z" transform="translate(-70.525 -73.358)" fill="#003163"/>
        <rect id="사각형_7" data-name="사각형 7" width="2.057" height="8.823" transform="translate(82.785 79.595)" fill="#003163"/>
        <path id="패스_194" data-name="패스 194" d="M165.518,161.936v-8.823h4.263v1.338h-2.206v1.933h2.131v1.339h-2.131v4.213Z" transform="translate(-79.475 -73.518)" fill="#003163"/>
        <rect id="사각형_8" data-name="사각형 8" width="2.057" height="8.823" transform="translate(91.335 79.595)" fill="#003163"/>
        <path id="패스_195" data-name="패스 195" d="M187.217,158.343v1.165q0,2.441-2.615,2.441a3.836,3.836,0,0,1-1-.124,2.148,2.148,0,0,1-.818-.421,1.988,1.988,0,0,1-.564-.8,3.278,3.278,0,0,1-.2-1.233v-4.015a3.275,3.275,0,0,1,.2-1.233,1.976,1.976,0,0,1,.564-.8,2.141,2.141,0,0,1,.818-.422,3.834,3.834,0,0,1,1-.124,4.887,4.887,0,0,1,1.072.106,2.112,2.112,0,0,1,.812.365,1.7,1.7,0,0,1,.539.725,3.055,3.055,0,0,1,.192,1.159v.967h-2.056v-1.215a.917.917,0,0,0-.124-.5.475.475,0,0,0-.434-.192.448.448,0,0,0-.409.192.912.912,0,0,0-.124.5v4.957a.914.914,0,0,0,.124.5.449.449,0,0,0,.409.192.477.477,0,0,0,.434-.192.919.919,0,0,0,.124-.5l.012-1.5Z" transform="translate(-87.395 -73.358)" fill="#003163"/>
        <path id="패스_196" data-name="패스 196" d="M24.3,16.545a20.041,20.041,0,0,0-8.719,1.985l3.6-13.977H41.539L42.748,0H15.655L9.813,22.67l4.75,1.852A15.6,15.6,0,1,1,8.691,36.708c0-.324.013-.644.032-.963L4.291,34.268A20.16,20.16,0,1,0,24.3,16.545" transform="translate(-1.987)" fill="#003163"/>
        <path id="패스_197" data-name="패스 197" d="M124.525,10.318l-.009.037c-.041-.024-.079-.053-.119-.077a.576.576,0,0,0,.024.344l-.164-.021a.637.637,0,0,1-.373.124c.016.11.018.559-.7.993l-.151-.795s-.177-.075-.163-.944a1.4,1.4,0,0,1-.143-.564A26.561,26.561,0,0,0,117.723,7.7a1.394,1.394,0,0,0-.234.24s-.337.116-.377.335l-.316.311-.212.075-.218.2-.188.234-.292.359h-.175l-.58.507.264.051.189.026.065-.026.137.026v.12l-.013.116.037.112.153-.177.139.073-.052.151-.114.051.05.073.2-.1.126-.084.127-.062.063-.11.2-.013.338.021v.1l.076.11.089.025.048.077.076.064.087.069-.024.09-.063.06s.113.036.076.288l.061.249a.939.939,0,0,0-.325.778l.035.09a.5.5,0,0,1-.1.3v.271a.552.552,0,0,0-.1.273l-.127.122a1.207,1.207,0,0,0-.227.288,2.01,2.01,0,0,0-.214.146,1.368,1.368,0,0,1-.58.847l-.354.4-.111.146-.042.138s-.44.371-.641.361-.025.01-.025.01l.062.1s-.6.137-.717-.312c0,0-.34.5-.543.385l-.011,0,.018.073-.162.047-.089.09-.107.069-.044.043-.03.086.035.067.019.071-.019.116.012.095-.084.047-.085.041-.079.054-.085.017-.041.06-.084.092-.1.058-.152,0-.088-.049a.273.273,0,0,1-.081.154l.035.069.037.047-.011.071-.053.047.02.06a.964.964,0,0,1,.447.391l.155.245.075.12.021.112.024.116.031.116.009.08.054-.075a.411.411,0,0,1-.069.339l-.078.112-.122-.023-.1.067-.068.069v.088l-.072.021-.1-.045-.078.045-.065.028-.055.043-.113.021-.066.045-.047.041-.108,0-.055-.012.028-.056.047-.034-.007-.043-.092-.045s-.048.009-.03-.015.061-.069.061-.069l.021-.036.027-.045,0-.043.028-.028.089-.114-.015-.064-.08-.082-.076-.069-.007-.032-.028-.054-.1-.047.072-.077.091.017.131.015.031-.011a.92.92,0,0,0-.145-.287l-.1-.146-.1,0-.089-.049-.07-.058-.045.047.009.039-.094-.017-.03-.03-.031.034-.079.009-.089-.043.085-.121.066-.137.1-.138-.039-.056.039-.06.058-.067-.015-.075-.109-.041-.079.037-.029.034-.022-.064-.039-.064-.046-.034-.026-.047v-.013l-.044-.06-.035.056-.013.026a1,1,0,0,1-.135.051c-.018,0-.186-.013-.186-.013l-.115.062-.151.071-.139.071-.117.1-.014.015-.063.062-.078.022-.089-.03.048-.064.015-.06-.063-.064-.037-.071s.079-.11.09-.129.081-.116.081-.116l.074-.122a.715.715,0,0,0,.05-.1l-.067-.086-.1-.048a.676.676,0,0,1-.157.031.252.252,0,0,0-.1.021l-.018.012a.934.934,0,0,1-.085.134.484.484,0,0,1-.08.073l-.133.108-.1.026-.122.073-.056.064.019.172c-.059.06-.421,0-.421,0l-.1.073-.012.1-.05.107.063.08.159.084.234.124.045.256.2.058.129-.1.081-.112.1-.069s.115.051.157.069l.14.069.152.03.167.043.112.124-.205.082-.144.047-.135.015-.066.054-.213.094-.1.073.017.095-.148.174-.126.135-.065.305.092,0,.044-.1.1.082s-.088.026.02.009.035.012.12.071a.036.036,0,0,1,.013.011c.065.064.042.206.042.206l.073.05a.813.813,0,0,1,0,.215l.061.054s.063.069.063.088,0,.084,0,.084l.056.047.066.082.059.086.107.026c.089.2-.1.163-.1.163l-.087-.064-.113-.062-.1-.054-.1-.039-.057.039,0,.069.141.06.125.077.087.073.107.075.076.1-.107.109-.1.022-.116.067-.013.043.142.069.085.06s.083.06.083.077a.411.411,0,0,0,.038.086l.025.021.05.069-.023.043-.048.026-.035.017-.017,0,0,.036.083.077-.035.06.009.077-.031.06L110,21.68l-.194.009c-.018,0-.107.012-.107.012l.053.064.042.051-.042.1-.266.447-.127.155-.024.129.024.138-.151.082-.032.058-.166.034-.135.146-.023.1,0,.082-.12.047-.1.118-.147.144-.5.339-.137-.047-.111.036-.168,0-.107-.008-.059.08-.029.021-.081-.1-.076.038-.018.062.048.064-.108.086-.087-.06-.063.1h-.246a4.685,4.685,0,0,1-.507.17l-.136.03-.042.028L106,24.421l-.054.026-.037.043.019.1.053.054.077.045.044.075-.076.037-.158,0-.044-.08a.249.249,0,0,1-.06-.286l.056-.028,0-.051-.072-.043-.057.017-.028.047-.066.022c-.048-.017-.087-.095-.087-.095a1.659,1.659,0,0,1-.427,0l-.035-.009,0-.013-.059.086-.028.008-.085.034s0,.155-.205.189l-.056.056a.34.34,0,0,1-.192.309V25.1l-.044.054-.07.2.027.157.146.045.1.069v.273l.087.041h.188l.018.1.057.1.012.082.087.06.119.03.058.073.116.028.013.114.1.129.029.215.115.245.087.185-.041.112s.115.1-.031.374l-.015.127-.015.157-.158.116-.135.1s-.068.025-.085.069a.238.238,0,0,1-.177.1h-.139a.405.405,0,0,1-.131.056c-.046,0,.009.141-.13.2a.145.145,0,0,1-.12.133s-.072.168-.221.125l-.115.086-.054.073-.074.086-.06-.06a.631.631,0,0,0-.012-.129c-.015-.041-.044-.17-.044-.17l.056-.1.018-.075-.074-.026h-.1l-.034-.09-.085-.064-.015-.017-.027-.039-.066.043-.079-.008V28.4l-.065-.093-.1.084-.042-.1-.029-.095-.08-.062-.007-.023L103.148,28l-.133-.088-.032-.015-.029-.069-.119-.086h-.209l-.131-.058-.037-.122.02-.1L102.4,27.4l-.147-.022-.076.116v.152l-.076.106.04.114a.467.467,0,0,0-.057.11c-.014.025-.064.148-.064.148l-.035.157-.038.106-.087.083-.022.086.041.051-.029.082-.024.088,0,.116.074.058.05.065.017.038.057-.047h.081l.04.06.028.069.018.1.022.077.059.017.009.174.04.125.057.054.029.086.032.06.116.02.067.019.078.008.1.086.009.007.079.084-.061.045.07.054.03.013.009,0,.042-.077.037.034.078.061.062.095.067.047.046.045.078.119.068.1.07.2-.047.129-.088.082.029.039a1.659,1.659,0,0,1,.05.167c0,.017-.046.064-.046.064l-.008.056.041.082.066,0,.054.044.037.086.072.034.034.073.045.09-.059.038-.063-.017-.057-.021-.022.047-.008.067-.037.017-.035-.038-.081-.075-.137-.049-.164-.093-.115-.064-.046-.077-.183-.127-.019-.123-.1-.108a.665.665,0,0,1-.221-.541.469.469,0,0,1-.066-.391l.005,0-.035-.067a.209.209,0,0,1-.1-.174l-.026-.022a.415.415,0,0,1-.113-.082.327.327,0,0,1-.081-.223l-.207-.211-.1-.125-.087.038-.07-.051-.007-.106.016-.105.07-.082.035-.168,0-.028.022-.088a1.041,1.041,0,0,1,.018-.46l0-.058c.068-.686-.074-.758-.074-.758-.27-.46-.226-.6-.226-.6,0-.468-.159-.552-.159-.552l-.144-.123-.114-.112-.094.095-.074.121c-.112.111-.3.267-.3.267a.447.447,0,0,1-.373-.022c-.167,0-.033-.417-.033-.417a.782.782,0,0,0-.052-.584l-.125-.174c-.187-.15-.113-.234-.113-.234l-.141-.131-.127-.021a.487.487,0,0,1-.253-.339l-.037-.119-.051-.133-.022-.056-.066-.11-.029-.149-.077-.1-.111-.071s0,.133-.149.008l-.054-.025-.027.073.02.034.037-.024.042.034,0,.067-.015.069-.061-.051-.028-.043h-.053l-.024.058-.023.093-.035.067-.089-.026-.029-.036-.078.036-.066.033-.048.017-.023.008-.033.051-.046.024-.029-.041-.124.022-.229.047.022-.185-.492.322.022.174-.2.243-.316.167-.295.215-.4.406-.456.3c0,.008,0,.017,0,.038-.029.082-.24.206-.24.206l-.2.142-.024.06L95,26.512l-.177.058-.059.129-.056.623c0,.017,0,.038.009.06.06.394-.107.46-.107.46-.046.421-.175.477-.175.477,0,.211-.07.258-.07.258-.046.391-.281.333-.281.333a.241.241,0,0,0-.155.3c-.15.185-.284.09-.284.09a.388.388,0,0,1-.2-.253.215.215,0,0,1-.118-.232c-.1-.043-.19-.427-.19-.427a.568.568,0,0,1-.089-.291c-.272-.279-.226-.477-.226-.477a.336.336,0,0,1-.1-.348l-.294-.464c-.138-.064-.127-.275-.127-.275-.155-.14-.155-.512-.155-.512l-.079-.279a1.02,1.02,0,0,1-.1-.563c-.144-.271-.026-.34-.026-.34l-.021-.292c-.153-.425.035-.481.035-.481l-.2-.026c-.009.6-.284.486-.284.486l-.054.073c-.216.146-.333.069-.333.069l-.164-.208L90.8,24.31,90.542,24c.4.116.458-.2.458-.2a.523.523,0,0,1-.7-.27l-.038.021a.3.3,0,0,1-.29-.026s-.02-.038-.037-.064a.233.233,0,0,0-.026-.01.13.13,0,0,1-.1-.114s0-.1,0-.148c-.046-.028-.177-.123-.177-.123l-.067-.114-.011-.022a.09.09,0,0,0-.024,0h-.135l-.184,0a2.15,2.15,0,0,1-.379.071,2,2,0,0,0-.89.06.292.292,0,0,1-.075.009l-.151-.022a.137.137,0,0,1-.115-.118V22.87l-.286-.121-.03-.17a26.788,26.788,0,1,0,37.25-12.262m-8.688-.476-.152.036.054-.1.085-.137.062.086Zm.353.1-.063.086-.2-.138.1-.112.087-.06.126.06ZM103.63,28.676l-.038-.019-.022-.11.081.073Zm-8.644,1.446-.107.041-.1-.058-.08-.088-.035-.161-.054-.05-.009-.2-.061-.123s.017-.211.107-.266c0,0-.137-.054.089-.456,0,0,.326.318.395.4l.057.136.119.189.04.148,0,.2ZM122.38,12.339l.129.122-.087.062-.042-.062Zm-.981,1.218.1-.012.085-.047.039.071-.148.114h-.12Zm.193,20.088h.065l.346.3.05.163-.068.077-.094.069-.026-.262-.209-.258-.111,0-.329-.271Zm-.7-.133-.079-.082.091-.047s.027.025.081.073-.094.056-.094.056m-.151-19.4.112-.047.1-.054v.1l-.154.09-.061-.056ZM120.81,34.5l.166-.038.2.069.3-.292,0-.232.066-.056.137.082.05-.025.039.211-.1.034-.057.15a1.02,1.02,0,0,1-.384.318.178.178,0,0,1-.246.108l-.054-.082-.2.1-.082.019-.02-.077-.1-.026-.044.069-.29-.211.063-.147s.4.193.543.03m-2.468,1.225-.14.043-.022.071s-.615.152-.733-.062l-.351-.309-.369-.022s.092-.241-.279-.571c0,0,.094-.447-.894-.7l-.149-.03-.21.009-.2-.206-.118.082-.231-.307-.1.215-.1.093h-.046l-.115-.32s-.138-.182-.29-.137.016-.028.016-.028-.04-.073.32-.073l.141-.025a.387.387,0,0,0,.138.012c.035-.012.089-.126.089-.126h-.369s-.32.012-.336-.183a.346.346,0,0,0-.336-.146l.127-.193.152-.013.14-.159a.58.58,0,0,1,.462.09s.188.013.233.013.059.112.059.112l-.048.126v.138l.013.125.091.045.048.172.139.022.065.206.257.037.068-.178.132-.086.045-.126.24-.045.34-.228a7.3,7.3,0,0,0,1.2.357,8.9,8.9,0,0,1,1.71.825l.048.275.5.163.257.116.122.185-.262.095.118.256.212.14.165.3.31.023-.028.166.168.069.142-.095v.254l.209.1.027.161-.212-.049-.212-.071-.142-.088s-.545.069-.781-.258l-.4-.468-.31-.137-.235-.138-.166-.095-.141.164-.236.253Zm-1.318,2.787-.044.161-.2-.121Zm-.388-3.152-.188.2-.21-.013.025-.1.278-.3c.1.021.094.211.094.211m-1.705-.533a.474.474,0,0,1,.059-.352l.081.114-.027.239Zm.013.15a.156.156,0,0,1-.14-.193s.148.067.14.193m-.456-.434-.089.159v-.148l.048-.08v-.138Zm-.844-2.024.124.058-.111.093h-.083l-.128-.026-.011-.125.072-.021Zm-.126-11.771.016-.047.015-.017.053.064,0,.082-.044.051-.028-.021Zm.169,12.1-.113.09-.046-.1Zm.118,2.493-.022.09-.139.095.094-.167.046-.129.126-.185.044.1-.079.107Zm.013,1.293-.12.157-.244-.2Zm.46-16.692-.141-.125s-.124-.056-.048-.237l.1-.141.046-.1.059-.006.084.067.1.009.04-.069.109.009.1-.119.068.011.173.168-.192.221s-.189-.121-.229-.08-.019,0-.019,0a1.368,1.368,0,0,0-.249.391m1.509,13.17-.022.08h-.231l-.128-.1Zm-.382-.288.222.013-.023.1-.151.022Zm4.082.479.1-.069.142.124h-.186c-.02,0-.057-.056-.057-.056m.242-18.682.015-.1.139,0-.008-.127.052-.03.076.06.085-.008.035-.06.054-.03.079.039.048.082-.194.03-.072.06-.08.043-.075.06-.068-.013a1.2,1.2,0,0,1-.279.262l-.006-.086Zm-.286.49.027-.025.074.025-.041.043-.05.051h-.04Zm-.194-.313.135.082-.316.275s-.029-.09.18-.357M117.6,10.613s.377,0,.261-.284c0,0-.124-.125-.1-.215l.113.026.024-.051.175.073.052.116-.065.147.091.224-.052.116.078.159-.065.122a5.838,5.838,0,0,0,.58,1.878l-.262-.32-.332.021-.124.327s-.164.3.29.928c0,0,.087.086-.065.271s-.037-.035-.037-.035a.469.469,0,0,0-.212-.3s-.1.043-.1.262l-.089.15a.341.341,0,0,1-.076-.46.414.414,0,0,0-.012-.309s-.063,0,.089-.148l.013-.249s-.226-.049-.051-.325l.012-.494s.1-.067-.076-.176c0,0-.05-.047.039-.211,0,0,.153-.073-.025-.3,0,0-.152-.021-.138-.684,0,0,.188-.023.064-.257m-.69,5.05.257-.153-.129-.139,0-.06a3.669,3.669,0,0,1,.431.073s-.089-.094.089-.55l-.019-.374.089-.133a4.34,4.34,0,0,0,.746.636l.2.034.1.131.136-.165.1-.069.1.368.1.1-.17.1-.238.134-.1-.1-.239.133-.135.335-.092.075-.257-.266-.126-.016-.144-.118-.076-.023-.221.165-.089-.118-.133.118.173.131.121.127-.164-.008-.227.182-.055-.125.085-.15-.089-.069s-.22-.06-.039-.206M114.5,18.409l-.018.1-.1-.082Zm-.543-.416.037.03-.026.043-.033-.034Zm-.152,1.143.07-.112.135-.082.091-.088.044-.112h.175l.046-.036.1.036.31-.011a.221.221,0,0,1,.257-.019l.17-.015.015.051.07.039.118-.112c.153-.138.048-.224.048-.224l.2-.163.007-.121.053-.1-.059-.058c.029-.109.186-.1.186-.1l.088-.064.008.154-.061.073.022.18a2.345,2.345,0,0,1,.7-.531.875.875,0,0,0,.138-.149c.008-.025.022-.116.022-.116l.055-.09.074-.043.061-.093-.044-.088.074-.1.029-.086-.024-.159-.057.051-.039.073-.053-.03.074-.146.048-.23.089-.058c.02-.189.085-.159.085-.159l.057.043.021.138.068-.2.018-.1c.05,0,.2.1.2.1l.027.23c.255.32.194.518.194.518l-.2.568-.081-.084a1.651,1.651,0,0,0-.19.269l.118.069a.571.571,0,0,1-.114.365l.018.473-.067.082-.11.127-.2.116.009-.11.013-.073.07-.077-.091-.017-.1.064-.083.1-.07.013v.172l-.066.06-.1-.047v-.219l-.194.253-.207-.01h-.113l-.139-.036-.055-.164-.148.176.1.056v.109H115.6s-.02.073-.024.1-.059.073-.059.073l-.089.09-.085.086-.065-.043-.105-.116a1.181,1.181,0,0,1-.024-.12c0-.026-.016-.119-.016-.119l-.091-.058-.133-.069-.142,0-.068.043-.04.043-.122-.008-.113.008-.031.043-.044.064-.083-.039-.074-.032-.061-.028-.078.034,0,.082.035.051-.014.09-.1-.052-.059.013-.03-.03-.12.017-.076-.017-.131.009-.05-.064.059-.093.1-.041Zm-.3-1.3.067.03v.069l-.067.021-.055-.073Zm-.447,1.766.037-.051.061-.046.126-.015.068.043.022.018.041-.03.066-.026h.1l.058.026.029.008.066.013.045-.013.063.026.009.082s.142.1.129.18a1.032,1.032,0,0,1-.151.193s-.037.026-.059.213l-.037.157-.085.026a.553.553,0,0,1-.144.15l.009-.159-.053-.1-.091.237s-.132.017-.068-.138l.009-.223a.255.255,0,0,0,.122-.232l-.07-.088-.031-.154-.046.08.024.075v.084a.3.3,0,0,1-.076.185l-.03-.1.012-.069-.012-.064h-.059l-.017.06-.022-.073-.051-.039.008-.077-.008-.039-.007-.06Zm.308,1.268.007-.064.06.064-.04.047Zm.028,12.321-.083.045-.148-.032.081-.06.141-.056Zm-.5-13.426.052.064-.022.047-.057-.051Zm.018,13.744.126.049.107-.049.124.058.186.021.128.23-.056.051-.373-.152-.139.045-.151-.058-.081.058-.129-.058-.1-.125.2-.021Zm-2.747,2.14s-.269.125-.34.021c0,0-.288.069-.311-.084,0,0,.1-.23.514-.054a.455.455,0,0,0,.309-.034s.094.08.347-.069c0,0,.05.185-.267.228,0,0-.2.082-.252-.009m.135.683a.24.24,0,0,1-.111.013l.008-.09.07-.038.059.06s.057.032-.026.056m-1.448-.825.129-.064h.089l.13.09.092.045.014.045-.161.026-.11.009s-.009-.056-.068,0a.774.774,0,0,0-.078.094l-.161-.012-.121-.009-.043.056-.116-.035-.059-.073.081-.021.068-.056.19-.06.067.082h.078l.04-.082Zm.693-5.1.048.022-.043.051-.073.017-.063-.056.055-.034Zm-.075-2.437.008-.108.055.064.055.043-.063.021Zm-.014,4.306.159-.228.129-.095H110l.068.1.416.013.072.064.105-.009.067-.036.36.015.035-.108.151-.077.024-.116.159.021-.021.138-.081.034-.3.357h-.333l-.014-.069-.21.021-.048-.069h-.185l-.068.08-.037-.054-.24-.008v.086l-.061-.014-.091-.064s-.231.013-.209.192l.083.071-.013.077v.106l.231.32.128-.159.1-.082.107-.021h.089l.061-.058.057.032.14.047.035-.069.142-.047.086.047.024.1-.2-.006a1.744,1.744,0,0,1-.55.339l-.021.08a.509.509,0,0,1,.348.41v.082l-.057.069.079.09.1.035.068.09-.046.1-.22-.022-.024.142-.1.021-.164-.038.1-.148-.022-.1-.142-.047-.128-.2.048-.15s-.163-.217-.209,0l-.031.045.02.138.011.823-.14.013-.067-.034-.138-.032.035-.161.022-.174.009-.18.012-.116-.068-.169-.085-.024-.033.056-.068-.022-.025-.262a.732.732,0,0,0,.163-.529s0-.18.161-.193l.05-.228s-.109-.021-.072-.237m.484-4.373-.162-.251-.083-.116-.076-.108a.33.33,0,0,1,.378.086l.1.022-.023.109Zm.107,2.362h-.24s.022-.112.122-.112Zm-.4-.206.083-.022.059.054-.089.054H109.6Zm.639-2.089.087.021.077.112.036.073.166-.019.041.075a.338.338,0,0,1-.076.1c-.035.021-.175.15-.175.15l-.165.056-.033-.254.072-.073-.116-.1-.015-.09Zm-.085-.413v-.086l.031-.043.063.075Zm1.233,1.044v.064l-.087.043-.076.054-.024.024.011-.164.054-.077-.02-.073-.092-.047-.042-.011a.865.865,0,0,1,.014-.292l.042.118.1.077.07.067-.014.128Zm-.275.185.055.056.023.054-.057.032-.078-.043h-.076l-.056-.077.048-.1.063-.051.068.082Zm-.087-.3-.046.09-.031.054-.072.088-.053.1-.051.084-.014-.054.014-.185.051-.064.022-.1.055-.151a.546.546,0,0,0,.1.062c.035.011.026.075.026.075m-.252-.445H110.7l-.05-.041a.152.152,0,0,1,0-.077c.011-.045.03-.108.03-.108l.087-.1.081.1.061.054.033.11.024.039Zm-.081.6-.033.157-.042.1.066.153-.077.03-.07-.088-.054-.032-.086-.039-.045-.09.053-.09.111-.017a.567.567,0,0,1,.133-.361l.066.12-.085.086Zm-.485,1.242h.177l-.032.062h-.09Zm1.11,3.316-.2-.069.128-.082.173.058.024.08Zm.147,2.3-.147.047-.039-.112.083-.047h.081Zm-.326.08-.065-.045.044-.09a.526.526,0,0,1,.083.082c.024.032-.061.054-.061.054m-.567-1.184s0-.069.037-.069h.084l.008.077-.091.06-.059.1-.013-.125Zm-.078-.09-.024.045-.024.08h-.091l.021-.219.186.021Zm.2-.2v.12l-.073.03-.035-.1.014-.125.044-.095.093.082-.072.045Zm-.4.309-.011.069-.072-.082.033-.064Zm-1.031,1.42a.415.415,0,0,0,.309.028s.061.2.244.174c0,0,.009.226-.15.161a1.079,1.079,0,0,1-.181-.168s-.419.041-.222-.2m1.378.518.037-.041.021-.067.094.009-.016.069-.17.082Zm.137-.821.064-.064.089.022-.128.088Zm.12.481.081-.15h.115l.129-.064.184-.047.138-.116.082,0,.077-.071s.08-.062.089-.058.157.036.157.036.044.034.065,0a.77.77,0,0,1,.155-.088l.065-.082.116.146-.116.086-.139.077-.076-.008-.173.09-.094-.021s-.139.133-.217.116l-.162.183-.117.071-.37.064Zm.774-2.613.075-.129.067.058-.081.071Zm.232,1.792.152.047.035.09-.094.03h-.15l-.1-.03-.014-.082Zm-.157-2.024-.212.026-.022-.093.22-.036.137.082Zm.565-.1-.022-.116.081-.009.07.073.068.051-.032.082-.081-.032Zm-.035-.408.188.116-.175-.013Zm.382,1.141-.079.062h-.072l.035-.082Zm.057-14,.037.134-.037.034-.059-.056Zm-.068,11.656.011.206-.054.073h-.053l-.009-.172Zm-.083.434h.166l-.015.137-.1.082.046.047s.083.1.072.146-.118-.008-.118-.008l-.083-.043-.1.03.24.593-.259-.228-.1-.344-.022-.112.151-.09Zm-.3.038.013-.193.164-.095v.116l.024.1-.037.093-.046.056-.059.095-.059.008-.081-.1Zm-.218,1.644.129.045.033.125-.07.12-.109.009-.145-.049-.131-.2.11-.045Zm-.244-13.946.046-.028.05,0,.081.017.015.043L112,19.7l-.081-.007-.027.03-.072,0s-.01-.063-.01-.063Zm-.083,9.092.044.121-.033.043-.046-.077Zm.078.432.087.131.02.46v.1h-.1l-.03.357-.046-.284-.068-.12-.065-.021-.066.118-.067.067.045.112.1.009-.014.129-.074.043-.046.133-.067-.051-.055-.034-.032.021-.111-.009-.155-.1-.066-.119-.032-.264.087-.03-.033-.064L111,29.656l-.111-.09a.386.386,0,0,1-.222.129l-.066-.03-.035.051-.063-.034-.033-.095-.113.172-.044.09-.076-.026.042-.129.035-.129.142-.111.159-.075.1-.1.089-.045.121.062v.133l.007.051.057-.073.076-.032.022-.045.112-.021.078-.043v-.1l.011-.06.079.017.084.043.057-.043.09.032a.376.376,0,0,1-.035-.324l.153.161Zm-.244-.391c-.03-.129.014-.161.014-.161.1.206-.014.161-.014.161m-.287-.956.046-.052.144.086.076.107-.008.073-.013.125.035.15.021.077-.138-.1-.085.009-.055-.043.022-.107-.055-.051-.08-.09-.075-.021v-.129Zm-.275-.564.055-.034.067.112-.067.073-.066-.043Zm-.818-2.067-.055-.032.014-.045.089.038Zm.035.142-.035.086-.063.013-.014-.064.059-.034Zm-.035-.535.027.08-.059.021-.03-.043Zm-.643-1.274.115-.187.078-.17.115-.095-.021-.082.1-.069.21-.039v.263l-.119.228-.033.228-.212.32.039.243h-.116l-.039-.243-.115-.019-.018-.177Zm-.227,2.875.243-.241.023-.486.21-.228c.057-.013.354.2.354.2l.139-.142-.031.219.031.056-.05.119a.315.315,0,0,1,.142.26.976.976,0,0,1-.319.413l.022.086-.081.09.146.389.076.056.21-.1.076.009.166.088.222.088.013.064-.091.041.043.123.133.064.089.129-.057.1-.1-.021-.009-.069-.076-.058-.187-.08v-.1l-.144-.116-.053.022-.024.14-.177-.14-.174-.112-.2.112-.19-.134-.1.035-.1-.013.074-.138v-.146l-.12-.041-.008-.066V26.7l-.068-.142a.3.3,0,0,1-.057-.172m-.562,2.574.155-.021v-.129l.318-.305v-.25c.146.172.081.284.081.284l-.059.073-.2.241-.063.164-.478.339a1.3,1.3,0,0,1,.244-.4m-3.114-3.357-.072-.043-.1-.013-.079-.013-.034-.077v-.073s-.025-.121-.025-.151.057-.075.057-.075a.883.883,0,0,1,.114-.062c.03-.013.022-.069.022-.069l.07-.079.137-.054.1.077.045-.023.086-.028.115-.018.085.011.079.071c.028.021-.024.069-.024.069l-.059.086-.042.056-.053.064-.043.041a.423.423,0,0,1,.023.084c0,.017-.046.025-.046.025l-.045.028-.053.054-.07.069-.1.038Zm-.231,6.567.042-.1v-.116l.063-.159.07-.141.027.025h.124v.1l.121.047.1-.073.146.073.1-.021v-.15s.022-.335.784-.435a.888.888,0,0,1,.294-.382v0s.172-.2.317-.182l.1-.006a.737.737,0,0,0,.046-.073c0-.013.027-.146.027-.146l.148.313-.148-.318h.3l.027-.168.217-.385.052.144.1-.1s.266.026.217.365l.2-.051.124.148.194.1-.146.095-.148.1.05.146a2.334,2.334,0,0,1-.416.077h.012a.58.58,0,0,1,.214.247l-.081.037-.092-.116-.054.134.313.425a.275.275,0,0,0-.168.095,1.154,1.154,0,0,1,.474.4.386.386,0,0,1-.343,0l-.118.077-.105.339v.207l-.146.193-.159.09-.117.105.146.194-.17.144-.038.082-.057.124-.05.121H107.9l-.123.086-.2.134-.057-.09-.037-.18-.146.088-.129-.116-.121-.067-.043-.06h-.129v.077l-.089.021h-.2l-.066.095-.051-.013.026-.12c.01-.142-.254-.09-.254-.09a.358.358,0,0,1-.261.013l-.089-.013-.055-.09.042-.064-.08-.052v-.154L105.824,33a.4.4,0,0,0-.13-.245.248.248,0,0,1-.17-.309c.022-.095-.018-.116-.018-.116a.167.167,0,0,1-.078-.159m2.721,3.393.055-.08h.164l-.01.1-.059.118h-.207Zm-.061-1.627-.026-.119.079-.144.055.108-.013.1-.024.129Zm-.218,1.732-.082-.084-.127-.008-.1-.013.037-.1h.3l.083.114Zm.007,4.522-.019.142-.079-.054.021-.1.035-.03Zm-.565-5.162-.139.034-.1.01-.164-.08.173-.047.166.025Zm-2.073-4.083,0,.1-.1.073,0-.064-.044-.075.048-.095Zm-.168-.3.07.034-.044.051-.053-.03Zm-.1,2.8.022-.069.116.039.081.08-.054.1-.035-.041-.07.032-.094.024-.032-.1Zm-.857-.387.149.021.151.129-.047.1.094.069.1.082-.044.127-.139-.114-.07-.1-.081-.129-.141-.011-.046-.114Zm-.3-.733.137.23h-.1l-.047-.129Zm-.276-.449.011-.023.033,0,.047-.015.05,0,.029-.01.04.023.012.034a.24.24,0,0,0-.041.028l-.068.034h-.065L103.5,31.9Zm-2.821-.417-.118-.116.037-.09.124.151Zm.6.638-.115-.1-.081-.08-.035-.1h.116l.081.15.07.043Zm.449.931-.081-.034-.01-.095-.057-.077-.014-.116.131.011.043.148.011.056.061.095Zm.327.442.034-.116.035.116Zm.209.215-.062-.047s.037-.133.084-.133a.637.637,0,0,1,.072.159c.008.069-.094.021-.094.021m.66.757-.07-.09.091-.013.046.114Zm1.149.043-.212.206s-.17-.185-.508-.5a2.914,2.914,0,0,1-.43-.3l.022-.1a1.063,1.063,0,0,0-.347-.23v-.106a.591.591,0,0,1-.22-.378l-.44-.684-.094-.1a1.482,1.482,0,0,1-.221-.546s-.164-.288-.421-.266a.586.586,0,0,0-.218-.4l-.055-.116h-.15l-.231-.27-.163-.112s-.15-.325,0-.348l.172.095.094.09.163.021.055-.08.107-.011.057.069h.092l.166.06.03.086.014.071.072.036.021.112a6.5,6.5,0,0,1,.938.826l.061-.016.023-.067.1.09.037.069.045.138h.112l.117.077.081.093h.255l.021.129.027.1.138-.022s.257.193-.014.252c0,0-.1-.105-.041.088l.032.185s.084.159.351.095l.031.285.164.1-.013.146.266.015.059.135.094.08-.07.1a1.919,1.919,0,0,1-.094.871Zm2.525.963s-.173-.025-.218.082l-.234-.095-.2-.034-.066-.067-.13-.045-.16-.025-.083-.009-.035-.06-.081.06-.21.043-.288-.159-.29.021s-.164-.069-.117-.206c0,0-.28.06-.242-.284,0,0,.139-.138.351.034l.067.069.068-.026.1-.03.183-.013a2.311,2.311,0,0,1,.462.264l.07.024.057-.024.144-.023.146.056.117-.021.115-.047.024-.093.14.013.037.067.137-.043.138.056.115.013.107.09-.083.116.07.056.142.047.087.009h.1l.094.025.151.008.094.078-.094.073-.02.043.011.038.035.03.081.06h-.107l-.151-.073h-.113l-.131-.077a.283.283,0,0,1-.392-.022M115.925,46.5l-.16-.12.323-.121.244.121Zm2.6,1.719-.042-.2h.162Zm1.134,1.517s-.652.28-.853-1.283a1.177,1.177,0,0,0,1.295.041s.286.52-.442,1.242m.442-1.478-.12-.161.2.041Zm1.3-2.957-.366.722-.122.434s-.04,1.04-.811.72-.12.045-.12.045l-.445.355-.081.161-.366-.282h-.157v-.234l-.408.154s.281.4-.772.08c0,0-.809.041-.726-.677,0,0-.327-.6-.53-.481s0-.116,0-.116a1.451,1.451,0,0,0-.121-.52l-.119.438-.369-.039.244-.159.081-.361.044-.357-.775.756-.607-1-.243-.159h-.445s-.323-.4-1.219-.277c0,0-.648.436-1.049.277l-.811.322s-.125.638-.445.4l-.366.041h-.767a1.017,1.017,0,0,1-.977.4L107.9,45.7l-.163-.279.285-.159-.081-.679-.2-.877-.2-.2-.609-1.36.528.241-.039-.241a1.038,1.038,0,0,1-.246-1.036l.166-.361.081.159s.039-.438.4-.357l.571-.4.24.077a2.242,2.242,0,0,1,.933-.28,1.3,1.3,0,0,0,.85-.876s-.042-.082.244-.561l.24.4.042-.434.283.036v-.359l.164-.039s.367-.761,1.053-.442c0,0,.281.086.12.442,0,0,.489-.561.568.159l.161-.159-.24-.4.283-.318a.541.541,0,0,1,.691-.442s.484-.2.037-.279c0,0-.244-.121.161-.121l.244.2.327.08.685.08.125.12.117-.243.2.2-.16.116v.241h-.2a1.031,1.031,0,0,1-.083.561l.328.359.85.4.244.318.321.038s.244-.082.406-.636l.122-1.318.163-.6.242.116.042.322.161.322.2.6.2-.077s.325.157.369.754l.2.279.083.638.2.241.242.118s.486.161.894,1.12c0,0,.2-.159.444.12v.28s.888.8.852,1.474a1.78,1.78,0,0,1-.082,1.439A1.451,1.451,0,0,1,121.4,45.3m-5.431-7.628-.121.086-.038-.2ZM122.214,12.7l.152.011-.085.051-.067.069Zm.342,22.557-.081-.017-.238-.232-.015-.082.338.224Zm.388-.176-.22-.318-.1-.164.011-.116s-.1-.1-.055-.163l.131.069.017.073.415.434Zm.119-23.212-.28.258-.111-.026.175-.232.189-.125.111.112Zm.2,22.941.395.383a.582.582,0,0,1-.382-.236Zm.168.649-.1.017V35.4l-.024-.071.037-.049a1.006,1.006,0,0,1,.084.09.252.252,0,0,1,0,.086m.325.163-.12-.086-.039-.108.143.022.109.105Zm7.58,3.361.205.168-.138.2L131,39.215Zm-3.24.935c0,.028-.057-.045-.074-.062s0-.077,0-.077l.061-.022a.884.884,0,0,1,.018.161m-.149-.419.061-.017a.694.694,0,0,1,.018.159c0,.03-.05-.043-.072-.064s-.007-.077-.007-.077m-.178-.292c-.009.03-.055-.041-.074-.06s-.007-.077-.007-.077l.06-.017a1.023,1.023,0,0,1,.02.154m-.107-.477c-.02-.018,0-.075,0-.075l.061-.02a1.055,1.055,0,0,1,.018.157c0,.028-.053-.041-.074-.062m-.02-.31c-.015-.017,0-.082,0-.082l.061-.015a1.033,1.033,0,0,1,.02.161c0,.028-.057-.045-.076-.064m-.015-.318.061-.017a.708.708,0,0,1,.017.163c-.007.026-.057-.047-.074-.064s0-.082,0-.082m.02,2.592c.011.03-.067-.013-.1-.022s-.044-.064-.044-.064l.044-.047a.85.85,0,0,1,.1.134m-.251-2.2.131.1-.053.043-.109.056-.076-.069-.009-.086-.016-.077.053-.064Zm-.009,1.985c.009.034-.07-.008-.1-.017s-.041-.069-.041-.069l.045-.043a.786.786,0,0,1,.094.129m-.32-2.523.143.129.087.06-.043.123.034.1-.155-.017-.022.056-.05-.129-.048-.1L127,38.047Zm-2.964-2.72.436.305.041.15-.481-.339Zm.678,1.646-.1-.039-.07-.073.061-.073.124.129Zm.068-.671-.152-.069-.144-.038-.135-.095.139-.047.151.043.15.116Zm.035-.643.271.333-.057.142-.235-.292Zm.476.935-.117.013-.162-.129-.037-.067s-.009-.041.072-.045l.174.108.07.051Zm1.514,4.379-.14-.116-.113-.056s-.462-.318-.5-.632h.163l.223.219h.1l.151.193.111.15.174.086.1.09.1.108-.094.073-.135-.133Zm.691,10.607-.159.086s-.009-.129.1-.153l.029-.165.015.013.083.095.085.082Zm2.366-2.443-.24.307-.028.138-.222.129-.016.15.139.193a.831.831,0,0,0-.774.28s.139.387-.563.971c0,0-.251.168-.719-.18,0,0-.07-.056-.155.043,0,0,.053.069-.268-.06,0,0-.167-.4,1.016-1.147,0,0,.648-.323.774-.727l.1-.082.183-.206.017-.224.154-.182.127.14.028.239.284-.142.011.114.154.013Zm1.51-1.386h-.085c-.142.013-.057.155-.057.155l-.209.051-.115.1c.07.527-.606,1.012-.606,1.012l-.085.013-.024-.138h-.113c-.031-.112.083-.224.083-.224l.055-.163c.085-.241-.209-.281-.209-.281l-.1-.084-.114-.043c-.137-.11-.052-.206-.052-.206l.166-.086.141-.06.013-.131-.068-.041.111-.167.015-.292-.084-.043-.029-.095-.1-.056-.011-.166h.068l-.042-.114h-.083c-.4-.318-.4-.554-.4-.554-.194-.219-.068-.25-.068-.25l.168.224c.506.1.48.481.48.481a.149.149,0,0,1,.083.182c-.044.208.057.2.057.2.184.043.153.112.153.112.1-.112-.013-.352-.013-.352.369.2.242.477.242.477l.085.069c.395.279.635.015.635.015.207-.1.236.012.236.012Zm.205-8.746-.068-.237.478-.064v.166Z" transform="translate(-40.723 -3.697)" fill="#003163"/>
        <path id="패스_198" data-name="패스 198" d="M128.7,51.969l-.021.215v0l.026-.219Z" transform="translate(-61.786 -24.953)" fill="#003163"/>
        <path id="패스_199" data-name="패스 199" d="M147.5,59.842v-.006a.2.2,0,0,0-.048.088.187.187,0,0,1,.048-.082" transform="translate(-70.802 -28.731)" fill="#003163"/>
        <path id="패스_200" data-name="패스 200" d="M116.575,41.565h0v0Z" transform="translate(-55.973 -19.958)" fill="#003163"/>
        <path id="패스_201" data-name="패스 201" d="M117.567,40.92l-.009,0,.007,0Z" transform="translate(-56.446 -19.646)" fill="#003163"/>
        <path id="패스_202" data-name="패스 202" d="M121.74,47.678l-.059.031c-.022.021-.083.1-.083.1Z" transform="translate(-58.386 -22.893)" fill="#003163"/>
      </g>
    </g>
  </g>
</svg>
